<?xml version="1.0" standalone="no"?>
<!DOCTYPE svg PUBLIC "-//W3C//DTD SVG 20010904//EN"
 "http://www.w3.org/TR/2001/REC-SVG-20010904/DTD/svg10.dtd">
<svg version="1.0" xmlns="http://www.w3.org/2000/svg"
 width="470.000000pt" height="350.000000pt" viewBox="0 0 470.000000 350.000000"
 preserveAspectRatio="xMidYMid meet">

<g transform="translate(0.000000,350.000000) scale(0.100000,-0.100000)"
fill="#000000" stroke="none">
<path d="M2856 3379 c-17 -24 -26 -48 -23 -60 3 -10 0 -19 -6 -19 -6 0 -4 -8
6 -17 16 -16 18 -16 32 2 12 17 16 18 24 5 5 -8 8 -17 5 -21 -3 -6 61 -20 112
-24 11 -1 26 -5 33 -9 7 -5 45 -17 84 -27 163 -43 206 -55 218 -65 8 -6 30
-18 49 -26 19 -9 60 -28 90 -41 39 -18 58 -22 67 -15 10 8 13 5 13 -11 0 -12
6 -21 14 -21 8 0 21 -6 28 -13 7 -7 27 -19 43 -27 73 -32 100 -114 53 -164
-25 -27 -88 -47 -88 -27 0 6 -11 11 -23 11 -13 0 -32 9 -43 21 -10 11 -26 18
-36 16 -10 -3 -16 -1 -13 4 9 14 -270 138 -310 139 -12 0 -25 4 -30 9 -6 4
-32 14 -60 20 -27 7 -59 17 -70 21 -33 14 -194 47 -290 59 -49 7 -114 15 -142
20 -42 6 -50 5 -42 -5 6 -7 8 -22 4 -34 -9 -30 -61 -27 -91 6 -25 26 -31 40
-15 29 5 -3 12 -1 16 5 4 6 -22 10 -72 10 -76 0 -77 -1 -56 -18 19 -15 20 -19
9 -35 -20 -27 -44 -12 -40 25 l4 31 -93 -7 c-75 -5 -265 -22 -274 -25 -2 -1
-3 -8 -3 -16 0 -8 -4 -15 -10 -15 -5 0 -10 5 -10 10 0 18 -32 11 -51 -12 -11
-11 -19 -25 -19 -30 0 -4 -7 -8 -15 -8 -21 0 -19 -18 3 -23 16 -4 16 -4 0 -11
-10 -5 -30 -2 -46 6 -24 12 -30 12 -41 1 -11 -12 -10 -14 5 -11 13 2 20 -4 22
-19 5 -33 28 -49 49 -32 13 11 17 11 21 1 2 -8 8 -10 15 -4 15 11 77 33 77 26
0 -12 -40 -42 -45 -34 -4 6 -10 10 -15 10 -14 0 -21 -32 -10 -45 8 -9 8 -15 0
-20 -13 -8 -13 -35 -1 -35 5 0 13 9 16 20 8 25 31 26 44 3 8 -13 13 -15 19 -6
11 17 52 5 45 -13 -9 -24 16 -15 33 11 9 14 19 24 21 21 8 -8 -25 -74 -44 -85
-17 -11 -17 -12 2 -27 20 -16 19 -16 -6 -12 -30 5 -57 -18 -40 -35 27 -27 12
-43 -47 -53 -55 -9 -79 -3 -78 17 1 10 -36 49 -46 49 -14 0 -9 -30 6 -36 20
-8 8 -34 -15 -34 -12 0 -16 5 -13 15 4 8 2 15 -4 15 -5 0 -12 -7 -16 -15 -3
-8 -1 -15 4 -15 6 0 10 -4 10 -10 0 -5 -6 -10 -14 -10 -8 0 -18 -5 -21 -10 -8
-13 14 -42 25 -35 5 3 16 -2 25 -11 13 -14 14 -19 3 -26 -9 -7 -6 -8 10 -5 26
6 28 0 5 -25 -16 -18 -5 -26 13 -9 5 6 10 0 11 -16 0 -14 7 -29 13 -33 7 -5
10 -17 7 -29 -3 -12 -1 -21 4 -21 5 0 9 7 9 15 0 8 5 15 10 15 6 0 10 -5 10
-12 0 -6 7 -3 16 8 12 14 14 15 11 3 -3 -10 6 -28 24 -45 22 -21 29 -24 29
-12 0 9 -7 23 -15 32 -8 8 -15 18 -15 21 0 4 7 5 15 1 8 -3 16 0 16 7 5 38 3
54 -8 68 -11 13 -9 18 14 28 21 10 28 9 34 -1 12 -18 11 -24 -5 -38 -16 -12
-11 -40 6 -40 6 0 8 7 4 15 -3 8 -2 15 3 15 5 0 14 -7 21 -15 7 -8 16 -15 21
-15 5 0 9 7 9 15 0 8 5 15 10 15 6 0 10 -11 10 -25 0 -14 5 -25 10 -25 6 0 10
-7 10 -16 0 -11 6 -13 19 -9 13 4 23 0 29 -11 13 -24 35 -7 28 21 -7 27 2 57
14 50 5 -3 6 -14 3 -25 -3 -11 0 -20 6 -20 6 0 11 12 11 26 0 26 1 26 25 10
20 -14 25 -14 25 -2 0 7 11 17 25 20 22 6 24 10 20 44 -5 45 9 76 25 52 8 -13
10 -12 10 3 0 9 5 17 11 17 7 0 9 11 6 29 -6 31 3 44 39 55 18 5 23 1 29 -21
l7 -28 9 24 c8 19 12 21 24 11 12 -10 15 -9 15 4 0 9 5 16 10 16 6 0 10 15 9
33 l-1 32 -11 -27 c-11 -28 -32 -42 -48 -32 -12 7 -11 34 1 34 6 0 10 7 10 16
0 13 -3 14 -15 4 -25 -21 -55 -3 -55 34 0 38 29 70 54 60 11 -4 16 -1 16 10 0
9 7 16 15 16 8 0 15 -5 15 -11 0 -7 10 -9 25 -5 18 5 25 2 25 -8 0 -8 7 -16
15 -20 17 -6 21 -56 4 -56 -6 0 -9 9 -6 20 3 11 1 18 -4 14 -15 -9 -10 -41 7
-48 23 -9 24 -8 24 13 0 30 15 33 42 8 14 -13 29 -22 34 -20 5 1 25 -11 44
-28 28 -24 29 -27 7 -13 -20 12 -31 14 -39 6 -7 -7 -4 -14 11 -21 17 -9 19
-16 12 -30 -7 -13 -6 -24 5 -39 8 -12 10 -23 5 -27 -13 -7 11 -77 29 -83 9 -3
11 1 7 12 -9 22 2 46 20 46 10 0 12 -6 8 -22 -6 -16 -4 -20 8 -15 9 3 17 2 19
-2 5 -13 58 -23 58 -11 0 5 -5 10 -11 10 -5 0 -8 4 -5 9 3 5 -1 11 -9 15 -16
6 -21 46 -7 46 17 0 22 -13 11 -27 -7 -8 -8 -13 -1 -13 5 0 15 7 22 15 10 12
7 19 -17 39 -15 13 -24 28 -20 33 5 4 14 0 21 -9 16 -22 29 -12 16 12 -8 14
-5 17 17 14 34 -3 55 6 49 22 -3 8 0 11 8 8 19 -7 39 22 34 51 -5 22 -2 25 23
25 15 0 35 3 45 7 11 4 15 2 11 -4 -4 -6 1 -17 11 -25 14 -12 21 -13 40 -3 19
10 20 14 8 18 -9 4 -16 2 -16 -3 0 -6 -7 -10 -15 -10 -12 0 -13 3 -3 19 7 11
16 17 21 14 4 -3 16 2 27 12 10 9 37 18 61 19 24 2 61 8 82 14 25 7 37 7 37 0
0 -6 11 -7 26 -4 20 5 32 2 46 -13 10 -12 14 -21 8 -21 -5 0 -10 -8 -9 -17 0
-11 3 -13 6 -5 2 6 13 12 24 12 11 0 19 7 19 16 0 11 5 14 16 10 9 -3 29 -6
45 -6 16 0 29 -5 29 -11 0 -6 -8 -8 -19 -4 -16 5 -19 1 -17 -23 2 -25 -1 -28
-22 -24 -13 3 -26 11 -29 18 -2 7 -11 10 -19 7 -12 -4 -12 -8 -2 -20 9 -12 8
-22 -7 -49 -15 -28 -24 -34 -49 -33 -17 0 -25 3 -18 6 24 9 12 23 -18 20 -30
-4 -55 -17 -31 -17 13 0 41 -24 41 -34 0 -3 -18 -9 -40 -12 -24 -4 -40 -12
-40 -20 0 -8 5 -14 11 -14 7 0 9 -9 6 -21 -3 -13 -1 -19 6 -16 7 2 11 11 11
20 -1 9 4 18 12 21 17 6 28 -10 14 -19 -8 -5 -8 -11 0 -19 7 -10 3 -20 -14
-39 -27 -29 -22 -39 12 -30 23 6 30 23 10 23 -9 0 -8 3 1 13 11 10 14 10 18 0
3 -7 9 -13 14 -13 6 0 7 5 3 11 -4 7 -1 10 6 7 22 -7 23 -27 3 -34 -40 -13
-61 -27 -57 -38 6 -14 -52 -37 -73 -29 -11 5 -14 3 -9 -6 8 -13 80 -7 101 9
14 9 58 -3 63 -18 2 -6 -1 -12 -7 -12 -6 0 -11 -9 -11 -20 0 -11 -7 -20 -15
-20 -9 0 -15 -9 -15 -25 0 -17 4 -23 15 -19 8 4 12 10 9 15 -3 5 4 9 15 9 12
0 20 -6 18 -12 -3 -17 51 -19 57 -2 3 7 14 10 28 7 l23 -6 -22 25 c-27 28 -30
58 -7 58 9 0 14 -6 11 -13 -3 -8 -1 -20 4 -28 8 -12 10 -12 19 1 8 13 10 12
10 -2 0 -11 7 -18 18 -18 10 0 13 3 6 8 -6 4 -14 17 -18 30 -4 12 -13 22 -19
22 -7 0 -6 4 3 10 13 9 13 11 0 20 -12 8 -10 10 10 10 23 1 24 2 8 14 -17 13
-25 36 -12 36 3 0 14 -10 24 -22 18 -22 20 -22 36 -5 10 9 13 17 7 17 -6 0
-13 12 -16 27 l-5 27 19 -25 c10 -13 19 -18 19 -11 0 17 45 12 46 -5 1 -7 2
-18 3 -24 0 -5 6 -7 12 -3 6 3 9 17 6 30 -3 20 0 24 19 24 13 0 24 4 24 10 0
5 -3 9 -7 9 -26 -4 -63 3 -58 10 3 6 -3 14 -12 20 -16 9 -16 10 -2 11 9 0 19
9 22 20 3 12 14 20 26 20 24 0 28 -15 6 -24 -20 -7 -20 -46 1 -46 8 0 12 5 9
11 -10 16 34 54 47 41 13 -13 2 -32 -18 -32 -8 0 -13 -4 -9 -9 5 -9 59 -6 94
5 11 3 11 7 1 19 -7 9 -10 18 -7 21 3 3 11 -5 18 -18 8 -12 19 -32 25 -43 6
-11 16 -19 22 -18 16 4 15 -14 0 -20 -10 -3 -10 -9 -2 -23 15 -26 39 -24 38 4
0 12 3 22 8 22 4 0 8 7 8 15 0 8 5 15 10 15 6 0 10 -4 10 -10 0 -5 5 -10 11
-10 5 0 7 5 4 10 -3 6 -1 10 4 10 7 0 7 7 -1 20 -9 14 -10 23 -3 28 6 4 18 24
27 45 10 20 22 37 28 37 5 0 10 12 10 26 0 14 -4 23 -10 19 -5 -3 -10 -1 -10
4 0 16 16 13 31 -5 12 -14 14 -14 21 6 7 20 9 20 24 6 8 -9 19 -16 24 -16 16
0 22 21 11 34 -12 14 -5 46 10 46 5 0 9 -11 9 -25 0 -16 6 -25 15 -25 8 0 15
-6 15 -12 0 -8 7 -5 15 6 17 22 20 56 5 56 -5 0 -14 18 -20 40 -6 22 -15 40
-20 40 -5 0 -18 19 -29 43 -11 23 -42 66 -69 96 -41 45 -52 52 -71 46 -14 -4
-21 -3 -18 2 10 16 -33 49 -128 99 -49 25 -94 50 -100 54 -5 4 -39 18 -75 30
-157 55 -196 69 -214 76 -14 5 -17 4 -12 -4 4 -7 1 -12 -8 -12 -9 0 -16 6 -16
14 0 8 -15 16 -37 19 -34 5 -114 21 -231 47 -23 6 -79 10 -125 10 l-82 0 -29
-41z m519 -69 c3 -5 2 -10 -4 -10 -5 0 -13 5 -16 10 -3 6 -2 10 4 10 5 0 13
-4 16 -10z m-125 -30 c0 -5 -7 -10 -15 -10 -8 0 -15 5 -15 10 0 6 7 10 15 10
8 0 15 -4 15 -10z m330 -25 c0 -8 -4 -15 -9 -15 -13 0 -22 16 -14 24 11 11 23
6 23 -9z m-92 -14 c3 -8 -1 -12 -9 -9 -7 2 -15 10 -17 17 -3 8 1 12 9 9 7 -2
15 -10 17 -17z m-1088 -131 c0 -5 -4 -10 -10 -10 -5 0 -10 5 -10 10 0 6 5 10
10 10 6 0 10 -4 10 -10z m345 -30 c3 -5 1 -10 -4 -10 -6 0 -11 5 -11 10 0 6 2
10 4 10 3 0 8 -4 11 -10z m873 -1 c-2 -6 -8 -10 -13 -10 -5 0 -11 4 -13 10 -2
6 4 11 13 11 9 0 15 -5 13 -11z m-1348 -8 c0 -6 -4 -13 -10 -16 -5 -3 -10 1
-10 9 0 9 5 16 10 16 6 0 10 -4 10 -9z m-290 -26 c0 -7 6 -15 13 -18 6 -2 -3
-4 -20 -5 -34 -1 -43 14 -21 36 13 13 28 7 28 -13z m370 -35 c0 -5 -4 -10 -10
-10 -5 0 -10 5 -10 10 0 6 5 10 10 10 6 0 10 -4 10 -10z m220 -4 c0 -3 -4 -8
-10 -11 -5 -3 -10 -1 -10 4 0 6 5 11 10 11 6 0 10 -2 10 -4z m399 -17 c-16
-10 -23 -4 -14 10 3 6 11 8 17 5 6 -4 5 -9 -3 -15z m1038 -15 c8 -21 -13 -42
-28 -27 -13 13 -5 43 11 43 6 0 13 -7 17 -16z m-2187 -4 c0 -5 -2 -10 -4 -10
-3 0 -8 5 -11 10 -3 6 -1 10 4 10 6 0 11 -4 11 -10z m604 -1 c-3 -6 0 -15 7
-20 7 -4 11 -11 7 -14 -8 -8 -78 5 -78 15 0 5 9 6 20 3 12 -3 20 -2 19 3 -3
18 1 24 17 24 8 0 12 -5 8 -11z m-234 -9 c0 -5 -5 -10 -11 -10 -5 0 -7 5 -4
10 3 6 8 10 11 10 2 0 4 -4 4 -10z m720 -6 c0 -8 -4 -12 -10 -9 -5 3 -10 10
-10 16 0 5 5 9 10 9 6 0 10 -7 10 -16z m60 2 c0 -7 -9 -16 -19 -19 -17 -4 -18
-2 -8 14 14 22 27 25 27 5z m-220 -17 c0 -5 -4 -9 -10 -9 -5 0 -10 7 -10 16 0
8 5 12 10 9 6 -3 10 -10 10 -16z m110 -1 c0 -4 9 -8 19 -8 27 0 75 -46 68 -64
-4 -9 -14 -12 -25 -9 -26 7 -38 -14 -12 -22 11 -3 20 -11 20 -16 0 -6 -9 -7
-20 -4 -21 7 -28 -9 -9 -21 8 -4 3 -11 -12 -19 -26 -14 -59 -1 -59 23 0 9 -6
12 -15 8 -14 -5 -20 14 -16 50 1 6 -8 19 -19 29 -23 20 -28 44 -6 26 12 -10
18 -7 31 13 15 22 55 33 55 14z m-629 -25 c13 -16 12 -17 -3 -4 -10 7 -18 15
-18 17 0 8 8 3 21 -13z m1649 13 c0 -3 -4 -8 -10 -11 -5 -3 -10 -1 -10 4 0 6
5 11 10 11 6 0 10 -2 10 -4z m-1470 -21 c0 -8 -4 -15 -10 -15 -5 0 -10 7 -10
15 0 8 5 15 10 15 6 0 10 -7 10 -15z m677 -7 c-3 -8 -6 -5 -6 6 -1 11 2 17 5
13 3 -3 4 -12 1 -19z m43 2 c0 -5 -2 -10 -4 -10 -3 0 -8 5 -11 10 -3 6 -1 10
4 10 6 0 11 -4 11 -10z m-490 -15 c0 -8 0 -18 1 -22 2 -21 -19 -10 -23 12 -4
17 -1 25 8 25 8 0 14 -7 14 -15z m340 -5 c0 -5 -5 -10 -11 -10 -5 0 -7 5 -4
10 3 6 8 10 11 10 2 0 4 -4 4 -10z m1018 -23 c5 -22 -24 -33 -44 -16 -14 12
-14 14 2 26 22 16 38 12 42 -10z m-1798 3 c0 -5 -9 -10 -21 -10 -11 0 -17 5
-14 10 3 6 13 10 21 10 8 0 14 -4 14 -10z m843 -20 c3 -14 1 -20 -6 -17 -7 2
-14 14 -15 26 -4 28 13 20 21 -9z m77 20 c0 -5 -7 -10 -15 -10 -8 0 -15 -5
-15 -12 0 -6 -3 -9 -6 -5 -11 10 4 37 21 37 8 0 15 -4 15 -10z m798 -15 c1
-16 -3 -25 -13 -25 -16 0 -19 9 -9 34 9 24 19 19 22 -9z m-1188 -11 c0 -8 -4
-12 -10 -9 -5 3 -10 10 -10 16 0 5 5 9 10 9 6 0 10 -7 10 -16z m250 -4 c0 -5
-9 -10 -21 -10 -11 0 -17 5 -14 10 3 6 13 10 21 10 8 0 14 -4 14 -10z m-280
-20 c0 -5 -4 -10 -9 -10 -6 0 -13 5 -16 10 -3 6 1 10 9 10 9 0 16 -4 16 -10z
m-477 -28 c-3 -12 -9 -22 -14 -22 -12 0 -11 7 2 32 13 25 20 19 12 -10z m87
13 c0 -8 -4 -15 -10 -15 -5 0 -7 7 -4 15 4 8 8 15 10 15 2 0 4 -7 4 -15z m489
-7 c11 -30 6 -38 -25 -38 -18 0 -24 5 -24 21 0 11 -4 18 -10 14 -5 -3 -7 -12
-3 -20 3 -8 1 -15 -3 -15 -13 1 -48 29 -43 35 5 4 69 21 92 24 4 1 11 -9 16
-21z m1111 -23 c0 -8 -4 -15 -10 -15 -5 0 -10 7 -10 15 0 8 5 15 10 15 6 0 10
-7 10 -15z m-994 -21 c-4 -9 -9 -15 -11 -12 -3 3 -3 13 1 22 4 9 9 15 11 12 3
-3 3 -13 -1 -22z m-737 -29 c0 -5 -6 -1 -14 9 -8 10 -11 24 -8 29 6 10 21 -16
22 -38z m-122 3 c-3 -8 -6 -5 -6 6 -1 11 2 17 5 13 3 -3 4 -12 1 -19z m698 12
c3 -5 1 -10 -4 -10 -6 0 -11 5 -11 10 0 6 2 10 4 10 3 0 8 -4 11 -10z m-375
-9 c0 -5 -11 -8 -24 -7 -13 0 -22 4 -19 9 6 10 43 9 43 -2z m407 -11 c2 -20
-8 -26 -20 -13 -4 3 -2 12 4 20 15 17 14 17 16 -7z m-771 -6 c-9 -8 -21 -12
-27 -8 -13 7 7 24 29 24 10 0 10 -4 -2 -16z m244 6 c0 -5 -4 -10 -10 -10 -5 0
-10 5 -10 10 0 6 5 10 10 10 6 0 10 -4 10 -10z m450 -30 c0 -5 -2 -10 -4 -10
-3 0 -8 5 -11 10 -3 6 -1 10 4 10 6 0 11 -4 11 -10z m940 0 c0 -5 -4 -10 -10
-10 -5 0 -10 5 -10 10 0 6 5 10 10 10 6 0 10 -4 10 -10z m-1603 -22 c-3 -8 -6
-5 -6 6 -1 11 2 17 5 13 3 -3 4 -12 1 -19z m731 3 c3 -8 -1 -12 -9 -9 -7 2
-15 10 -17 17 -3 8 1 12 9 9 7 -2 15 -10 17 -17z m954 -6 c0 -5 -5 -11 -11
-13 -6 -2 -11 4 -11 13 0 9 5 15 11 13 6 -2 11 -8 11 -13z m-1906 -10 c-10 -7
-15 -18 -12 -24 4 -5 2 -12 -3 -15 -10 -6 -23 33 -15 46 3 4 15 8 27 8 21 -1
21 -1 3 -15z m274 -16 c0 -23 -16 -25 -24 -3 -10 25 -7 34 9 28 8 -4 15 -15
15 -25z m-312 -7 c2 -7 -3 -12 -12 -12 -9 0 -16 7 -16 16 0 17 22 14 28 -4z
m397 8 c-3 -5 -10 -10 -16 -10 -5 0 -9 5 -9 10 0 6 7 10 16 10 8 0 12 -4 9
-10z m85 -20 c0 -5 -4 -10 -10 -10 -5 0 -10 5 -10 10 0 6 5 10 10 10 6 0 10
-4 10 -10z m440 0 c0 -5 -5 -10 -11 -10 -5 0 -7 5 -4 10 3 6 8 10 11 10 2 0 4
-4 4 -10z m1120 0 c0 -5 -2 -10 -4 -10 -3 0 -8 5 -11 10 -3 6 -1 10 4 10 6 0
11 -4 11 -10z m-1750 -10 c0 -6 11 -8 25 -4 26 6 31 -1 17 -24 -5 -8 -16 -10
-28 -5 -17 6 -17 5 -5 -10 11 -14 11 -17 0 -17 -8 0 -21 5 -29 10 -13 9 -13
11 0 20 13 8 12 11 -5 24 -20 15 -20 15 3 16 12 0 22 -5 22 -10z m-60 -10 c0
-5 -9 -10 -21 -10 -11 0 -17 5 -14 10 3 6 13 10 21 10 8 0 14 -4 14 -10z
m1825 -10 c3 -6 -4 -10 -17 -10 -18 0 -20 2 -8 10 19 12 18 12 25 0z m-495 -4
c0 -3 -4 -8 -10 -11 -5 -3 -10 -1 -10 4 0 6 5 11 10 11 6 0 10 -2 10 -4z m215
-6 c3 -5 1 -10 -4 -10 -6 0 -11 5 -11 10 0 6 2 10 4 10 3 0 8 -4 11 -10z
m-1425 -20 c0 -5 -8 -10 -17 -10 -15 0 -16 2 -3 10 19 12 20 12 20 0z m131
-13 c-10 -9 -11 -8 -5 6 3 10 9 15 12 12 3 -3 0 -11 -7 -18z m-421 -11 c0 -3
-4 -8 -10 -11 -5 -3 -10 -1 -10 4 0 6 5 11 10 11 6 0 10 -2 10 -4z m290 -11
c0 -2 -9 -3 -19 -2 -11 0 -18 5 -15 9 4 6 34 0 34 -7z m75 -5 c-3 -5 -12 -10
-18 -10 -7 0 -6 4 3 10 19 12 23 12 15 0z m1310 -10 c3 -5 1 -10 -4 -10 -6 0
-11 5 -11 10 0 6 2 10 4 10 3 0 8 -4 11 -10z m-1667 -25 c-3 -3 -9 2 -12 12
-6 14 -5 15 5 6 7 -7 10 -15 7 -18z m37 5 c-3 -5 -10 -10 -16 -10 -5 0 -9 5
-9 10 0 6 7 10 16 10 8 0 12 -4 9 -10z m251 -37 c-7 -7 -26 7 -26 19 0 6 6 6
15 -2 9 -7 13 -15 11 -17z"/>
<path d="M2840 2818 c0 -7 5 -20 10 -28 7 -11 12 -12 21 -3 9 9 8 15 -4 27
-19 19 -27 20 -27 4z"/>
<path d="M1790 3406 c0 -2 7 -9 15 -16 13 -11 14 -10 9 4 -5 14 -24 23 -24 12z"/>
<path d="M1464 3355 c1 -21 3 -23 12 -10 15 21 24 19 24 -5 0 -19 11 -26 23
-14 8 8 -34 54 -49 54 -6 0 -11 -11 -10 -25z"/>
<path d="M1376 3315 c-9 -26 -7 -32 5 -12 6 10 9 21 6 23 -2 3 -7 -2 -11 -11z"/>
<path d="M1430 3326 c0 -2 7 -9 15 -16 13 -11 14 -10 9 4 -5 14 -24 23 -24 12z"/>
<path d="M1805 3310 c-11 -12 -13 -20 -6 -20 6 0 14 6 17 14 4 11 12 13 29 6
19 -7 23 -6 18 5 -8 21 -37 18 -58 -5z"/>
<path d="M1447 3284 c-8 -8 1 -24 14 -24 5 0 9 7 9 15 0 15 -12 20 -23 9z"/>
<path d="M1825 3280 c-3 -5 -2 -10 4 -10 5 0 13 5 16 10 3 6 2 10 -4 10 -5 0
-13 -4 -16 -10z"/>
<path d="M1345 3270 c3 -5 13 -10 21 -10 8 0 14 -4 14 -9 0 -5 9 -7 20 -4 16
4 18 8 9 19 -13 16 -74 20 -64 4z"/>
<path d="M1780 3270 c0 -5 5 -10 11 -10 5 0 7 5 4 10 -3 6 -8 10 -11 10 -2 0
-4 -4 -4 -10z"/>
<path d="M1503 3250 c5 -31 17 -36 17 -7 0 15 -4 27 -10 27 -5 0 -9 -9 -7 -20z"/>
<path d="M1710 3260 c8 -5 20 -10 25 -10 6 0 3 5 -5 10 -8 5 -19 10 -25 10 -5
0 -3 -5 5 -10z"/>
<path d="M1643 3245 c0 -8 4 -12 9 -9 5 3 6 10 3 15 -9 13 -12 11 -12 -6z"/>
<path d="M1335 3230 c3 -5 8 -10 11 -10 2 0 4 5 4 10 0 6 -5 10 -11 10 -5 0
-7 -4 -4 -10z"/>
<path d="M1280 3210 c0 -11 5 -20 10 -20 6 0 10 9 10 20 0 11 -4 20 -10 20 -5
0 -10 -9 -10 -20z"/>
<path d="M1207 3204 c6 -17 17 -18 31 -1 8 9 4 12 -13 13 -16 1 -22 -2 -18
-12z"/>
<path d="M970 3183 c-19 -19 -20 -22 -5 -17 15 6 17 4 12 -10 -4 -11 -3 -15 4
-11 6 4 8 13 5 20 -2 7 1 18 7 24 22 22 1 16 -23 -6z"/>
<path d="M908 3178 c-6 -18 7 -65 14 -52 4 5 3 16 -2 24 -4 7 -6 19 -3 27 3 7
3 13 0 13 -3 0 -7 -6 -9 -12z"/>
<path d="M1152 3170 c2 -11 -6 -14 -29 -11 -19 1 -33 -2 -33 -8 0 -6 13 -11
30 -11 19 0 34 -7 42 -20 13 -21 38 -27 38 -10 0 6 -7 13 -16 17 -8 3 -13 11
-10 19 3 7 -2 18 -10 25 -12 10 -15 10 -12 -1z"/>
<path d="M1020 3155 c0 -9 5 -15 11 -13 6 2 11 8 11 13 0 5 -5 11 -11 13 -6 2
-11 -4 -11 -13z"/>
<path d="M847 3133 c-4 -3 -7 -13 -7 -22 0 -14 2 -14 10 -1 8 12 10 11 10 -7
0 -25 7 -28 30 -13 13 8 11 12 -7 30 -24 22 -27 23 -36 13z"/>
<path d="M789 3114 c-1 -5 -1 -13 0 -18 1 -5 -5 -6 -13 -3 -9 4 -18 2 -21 -3
-3 -4 6 -7 20 -5 15 1 25 -3 25 -11 0 -8 -8 -11 -22 -9 -21 4 -21 4 -5 -12 13
-13 20 -14 29 -5 18 18 19 48 3 62 -8 7 -16 9 -16 4z"/>
<path d="M980 3093 c0 -15 18 -35 23 -27 3 5 -1 15 -9 22 -8 7 -14 9 -14 5z"/>
<path d="M1055 3080 c-3 -5 -1 -10 4 -10 6 0 11 5 11 10 0 6 -2 10 -4 10 -3 0
-8 -4 -11 -10z"/>
<path d="M1175 3080 c-3 -5 -1 -10 4 -10 6 0 11 5 11 10 0 6 -2 10 -4 10 -3 0
-8 -4 -11 -10z"/>
<path d="M1805 3070 c-4 -6 -10 -8 -14 -6 -4 3 -8 -1 -8 -8 0 -10 6 -10 24 -2
12 6 23 14 23 19 0 11 -18 9 -25 -3z"/>
<path d="M886 3055 c-3 -8 -1 -15 4 -15 6 0 10 7 10 15 0 8 -2 15 -4 15 -2 0
-6 -7 -10 -15z"/>
<path d="M720 3051 c0 -5 -6 -12 -12 -14 -7 -2 0 -3 15 -1 17 2 26 0 22 -6 -3
-6 1 -10 9 -10 19 0 21 11 4 28 -14 14 -38 16 -38 3z"/>
<path d="M677 3002 c-20 -9 -26 -17 -19 -24 14 -14 62 -1 62 17 0 21 -12 23
-43 7z"/>
<path d="M800 3016 c0 -2 7 -9 15 -16 12 -10 15 -10 15 4 0 9 -7 16 -15 16 -8
0 -15 -2 -15 -4z"/>
<path d="M990 3010 c0 -5 5 -10 10 -10 6 0 10 5 10 10 0 6 -4 10 -10 10 -5 0
-10 -4 -10 -10z"/>
<path d="M890 2999 c0 -5 5 -7 10 -4 6 3 10 8 10 11 0 2 -4 4 -10 4 -5 0 -10
-5 -10 -11z"/>
<path d="M750 2989 c0 -4 4 -10 10 -14 5 -3 7 -12 4 -20 -4 -8 -10 -13 -14
-10 -5 3 -11 1 -15 -4 -8 -14 33 -53 47 -45 7 4 5 10 -5 16 -20 11 -12 34 14
41 30 8 23 34 -11 39 -16 3 -30 1 -30 -3z"/>
<path d="M900 2975 c-10 -12 -10 -18 0 -30 17 -20 27 -19 35 5 3 11 11 20 16
20 6 0 1 -14 -11 -31 -32 -44 -18 -46 26 -3 22 21 33 34 26 30 -7 -4 -19 -2
-27 4 -8 6 -19 9 -26 5 -6 -4 -15 -2 -19 4 -5 9 -10 8 -20 -4z"/>
<path d="M830 2970 c0 -5 7 -7 15 -4 8 4 15 8 15 10 0 2 -7 4 -15 4 -8 0 -15
-4 -15 -10z"/>
<path d="M608 2924 c-9 -20 -12 -32 -5 -25 6 6 17 11 25 11 12 0 12 -3 2 -15
-10 -13 -10 -19 5 -35 11 -12 15 -26 11 -37 -7 -17 -8 -17 -17 0 -6 9 -18 17
-27 18 -10 0 -12 3 -4 6 6 2 12 12 12 21 0 15 -2 15 -17 -1 -14 -14 -15 -21
-6 -36 7 -11 8 -23 2 -32 -16 -26 -9 -52 20 -78 16 -14 31 -37 32 -51 4 -22 1
-25 -28 -24 -18 1 -33 -2 -33 -7 0 -5 6 -9 14 -9 7 0 16 -10 19 -21 4 -15 11
-20 23 -15 12 4 15 2 10 -9 -3 -8 -2 -15 2 -15 4 -1 33 -2 65 -5 34 -2 55 0
51 6 -3 5 -9 7 -14 4 -4 -3 -10 2 -14 10 -3 8 -1 17 5 20 14 10 0 25 -24 26
-13 1 -8 4 13 8 42 9 55 4 40 -14 -16 -19 -4 -35 27 -35 18 0 24 -4 20 -14 -4
-10 -1 -13 9 -9 7 3 14 15 15 27 0 11 3 15 6 9 2 -7 13 -13 23 -13 15 0 17 7
15 36 -4 40 2 64 17 64 5 0 7 -4 4 -9 -9 -14 4 -41 19 -41 18 0 27 30 14 46
-6 7 -8 22 -4 34 5 15 2 20 -10 20 -9 0 -15 5 -13 12 3 7 -13 28 -34 47 -21
19 -38 41 -38 48 0 7 -4 13 -9 13 -15 0 -23 -18 -10 -22 5 -2 7 -11 4 -20 -6
-14 -10 -15 -26 -5 -10 6 -19 19 -19 27 -1 20 -24 50 -39 50 -6 0 -14 7 -17
15 -4 8 -12 15 -20 15 -10 0 -12 -12 -7 -50 4 -34 2 -50 -6 -50 -6 0 -11 9
-11 19 0 26 -10 52 -19 47 -3 -2 -11 7 -18 20 -6 13 -7 24 -2 24 5 0 9 7 9 15
0 28 -26 15 -42 -21z m132 -64 c0 -5 -2 -10 -4 -10 -3 0 -8 5 -11 10 -3 6 -1
10 4 10 6 0 11 -4 11 -10z m-48 -72 c-7 -7 -12 -8 -12 -2 0 14 12 26 19 19 2
-3 -1 -11 -7 -17z m-42 4 c0 -5 -7 -17 -16 -28 -14 -17 -15 -17 -10 -1 3 10 6
23 6 28 0 5 5 9 10 9 6 0 10 -4 10 -8z m-45 -12 c3 -5 1 -10 -4 -10 -6 0 -11
5 -11 10 0 6 2 10 4 10 3 0 8 -4 11 -10z m172 -5 c8 -22 -6 -33 -17 -15 -13
20 -12 30 0 30 6 0 13 -7 17 -15z m-62 -5 c3 -5 1 -10 -4 -10 -6 0 -11 5 -11
10 0 6 2 10 4 10 3 0 8 -4 11 -10z m175 -10 c0 -5 -4 -10 -10 -10 -5 0 -10 5
-10 10 0 6 5 10 10 10 6 0 10 -4 10 -10z m-230 -34 c0 -3 -4 -8 -10 -11 -5 -3
-10 -1 -10 4 0 6 5 11 10 11 6 0 10 -2 10 -4z m40 -17 c-7 -11 -14 -18 -17
-15 -3 3 0 12 7 21 18 21 23 19 10 -6z m50 4 c-1 -10 -26 -43 -33 -43 -3 0 0
11 6 25 11 23 27 34 27 18z m40 -48 c0 -8 -2 -15 -4 -15 -2 0 -6 7 -10 15 -3
8 -1 15 4 15 6 0 10 -7 10 -15z"/>
<path d="M830 2934 c0 -8 -4 -12 -10 -9 -5 3 -10 -1 -10 -9 0 -11 7 -15 23
-12 26 4 35 31 12 39 -9 4 -15 1 -15 -9z"/>
<path d="M1406 2942 c-2 -4 0 -14 6 -22 8 -12 9 -12 5 2 -3 9 -1 19 6 22 9 3
9 5 0 5 -6 1 -14 -3 -17 -7z"/>
<path d="M1325 2920 c-3 -5 -1 -10 4 -10 6 0 11 5 11 10 0 6 -2 10 -4 10 -3 0
-8 -4 -11 -10z"/>
<path d="M1758 2923 c6 -2 18 -2 25 0 6 3 1 5 -13 5 -14 0 -19 -2 -12 -5z"/>
<path d="M1802 2903 c-15 -27 -16 -46 -2 -38 6 3 10 1 10 -4 0 -6 -4 -11 -10
-11 -5 0 -10 -9 -10 -21 0 -14 -5 -19 -14 -16 -10 4 -13 1 -9 -9 3 -8 11 -13
17 -11 18 6 36 -25 22 -38 -6 -5 -9 -9 -7 -8 2 2 10 -2 18 -8 10 -9 13 -4 13
30 0 22 5 41 10 41 6 0 10 23 10 51 0 40 -3 50 -14 46 -8 -3 -16 -1 -19 6 -2
7 -9 3 -15 -10z"/>
<path d="M1390 2890 c0 -5 5 -10 10 -10 6 0 10 5 10 10 0 6 -4 10 -10 10 -5 0
-10 -4 -10 -10z"/>
<path d="M1750 2879 c0 -5 -4 -7 -10 -4 -5 3 -10 -1 -10 -9 0 -14 3 -14 20 -4
21 14 27 28 10 28 -5 0 -10 -5 -10 -11z"/>
<path d="M936 2838 c3 -4 9 -8 15 -8 5 0 9 4 9 8 0 5 -7 9 -15 9 -8 0 -12 -4
-9 -9z"/>
<path d="M2485 2840 c-4 -7 0 -19 9 -28 15 -15 16 -15 16 1 0 9 0 20 1 24 1
13 -19 15 -26 3z"/>
<path d="M1730 2810 c-13 -8 -12 -10 3 -10 9 0 17 5 17 10 0 12 -1 12 -20 0z"/>
<path d="M1940 2810 c0 -5 5 -10 11 -10 5 0 7 5 4 10 -3 6 -8 10 -11 10 -2 0
-4 -4 -4 -10z"/>
<path d="M2445 2809 c-4 -6 -5 -13 -2 -16 7 -7 27 6 27 18 0 12 -17 12 -25 -2z"/>
<path d="M3211 2799 c-1 -9 -8 -20 -17 -23 -25 -10 -6 -26 31 -26 20 0 35 6
39 15 5 13 -3 17 -31 14 -4 0 -10 8 -14 18 -6 15 -8 15 -8 2z"/>
<path d="M2405 2770 c3 -5 8 -10 11 -10 2 0 4 5 4 10 0 6 -5 10 -11 10 -5 0
-7 -4 -4 -10z"/>
<path d="M935 2760 c3 -5 11 -10 16 -10 6 0 7 5 4 10 -3 6 -11 10 -16 10 -6 0
-7 -4 -4 -10z"/>
<path d="M1886 2738 c-9 -36 -7 -68 5 -68 6 0 8 13 5 30 -4 29 8 42 17 18 2
-7 4 -1 4 15 1 33 -22 36 -31 5z"/>
<path d="M3150 2750 c0 -5 5 -10 11 -10 5 0 7 5 4 10 -3 6 -8 10 -11 10 -2 0
-4 -4 -4 -10z"/>
<path d="M570 2706 c0 -26 13 -35 25 -16 3 6 -1 17 -9 26 -15 14 -16 13 -16
-10z"/>
<path d="M1739 2703 c-13 -16 -12 -17 4 -4 16 13 21 21 13 21 -2 0 -10 -8 -17
-17z"/>
<path d="M967 2674 c-6 -32 10 -49 30 -32 10 8 13 5 13 -12 0 -13 -3 -20 -6
-17 -4 3 -15 2 -26 -4 -16 -9 -17 -13 -6 -27 11 -13 11 -15 -4 -10 -17 7 -33
-27 -17 -38 5 -3 9 3 9 13 0 15 3 15 23 -5 18 -18 19 -24 8 -31 -14 -9 -7 -31
10 -31 6 0 8 4 5 8 -2 4 0 14 5 22 8 12 12 12 16 3 2 -7 11 -13 19 -13 9 0 14
-12 15 -37 1 -21 4 -29 6 -18 2 11 15 25 28 32 26 11 29 7 28 -35 -1 -8 5 -11
14 -8 11 4 13 1 8 -14 -4 -11 -2 -20 4 -20 6 0 11 6 11 13 0 7 9 19 19 26 11
8 17 20 14 28 -3 7 2 13 11 13 9 0 16 -7 16 -15 0 -8 4 -15 9 -15 4 0 8 13 7
29 -1 16 -4 27 -8 25 -12 -8 -27 32 -21 54 5 22 -10 31 -22 12 -9 -15 -25 -12
-25 6 0 8 -4 13 -10 9 -5 -3 -7 -13 -3 -23 4 -13 2 -12 -10 3 -8 11 -22 43
-30 70 -14 45 -15 46 -10 11 5 -34 4 -38 -11 -33 -10 4 -20 7 -22 7 -2 0 -4 7
-4 15 0 8 5 15 10 15 6 0 10 7 10 16 0 8 -4 12 -10 9 -5 -3 -10 -2 -10 2 0 13
-44 11 -52 -1 -5 -7 -12 -4 -21 8 -13 18 -14 18 -20 -10z m87 -111 c-7 -24 -5
-26 22 -20 34 6 70 -15 58 -34 -5 -9 -9 -8 -14 5 -7 20 -25 22 -25 4 0 -21
-39 -14 -50 8 -6 12 -17 29 -24 38 -12 14 -12 16 3 10 11 -4 16 -1 16 11 0 9
5 13 10 10 6 -3 7 -18 4 -32z"/>
<path d="M551 2674 c0 -11 3 -14 6 -6 3 7 2 16 -1 19 -3 4 -6 -2 -5 -13z"/>
<path d="M2367 2673 c-4 -3 -7 -11 -7 -17 0 -6 5 -5 12 2 6 6 9 14 7 17 -3 3
-9 2 -12 -2z"/>
<path d="M2845 2670 c-3 -5 -1 -10 4 -10 6 0 11 5 11 10 0 6 -2 10 -4 10 -3 0
-8 -4 -11 -10z"/>
<path d="M1696 2655 c-16 -12 -17 -15 -4 -15 9 0 18 7 22 15 7 18 6 18 -18 0z"/>
<path d="M2857 2649 c-17 -10 -17 -12 -2 -28 14 -16 14 -19 0 -31 -22 -18 -18
-33 5 -20 13 7 20 21 20 38 0 16 5 33 12 40 16 16 -9 16 -35 1z"/>
<path d="M912 2597 c-9 -11 -10 -17 -2 -22 15 -9 23 -1 18 21 -3 15 -4 16 -16
1z"/>
<path d="M2640 2590 c0 -5 5 -10 10 -10 6 0 10 5 10 10 0 6 -4 10 -10 10 -5 0
-10 -4 -10 -10z"/>
<path d="M3765 2570 c-3 -5 -1 -10 4 -10 6 0 11 5 11 10 0 6 -2 10 -4 10 -3 0
-8 -4 -11 -10z"/>
<path d="M2330 2560 c13 -9 13 -11 0 -19 -8 -6 -11 -13 -7 -18 9 -8 27 15 27
35 0 6 -8 12 -17 12 -15 0 -16 -2 -3 -10z"/>
<path d="M642 2540 c11 -18 58 -29 58 -14 0 12 -26 29 -48 31 -20 3 -21 1 -10
-17z"/>
<path d="M3780 2540 c0 -5 5 -10 10 -10 6 0 10 5 10 10 0 6 -4 10 -10 10 -5 0
-10 -4 -10 -10z"/>
<path d="M2770 2520 c0 -5 5 -10 11 -10 5 0 7 5 4 10 -3 6 -8 10 -11 10 -2 0
-4 -4 -4 -10z"/>
<path d="M3920 2520 c0 -5 5 -10 11 -10 5 0 7 5 4 10 -3 6 -8 10 -11 10 -2 0
-4 -4 -4 -10z"/>
<path d="M3650 2510 c0 -13 18 -22 24 -11 3 5 -1 11 -9 15 -8 3 -15 1 -15 -4z"/>
<path d="M3893 2509 c3 -9 1 -21 -5 -27 -6 -6 -6 -12 0 -16 14 -8 22 29 10 45
-8 11 -9 11 -5 -2z"/>
<path d="M2811 2484 c0 -11 3 -14 6 -6 3 7 2 16 -1 19 -3 4 -6 -2 -5 -13z"/>
<path d="M1031 2474 c0 -11 3 -14 6 -6 3 7 2 16 -1 19 -3 4 -6 -2 -5 -13z"/>
<path d="M3190 2480 c0 -5 5 -10 11 -10 5 0 7 5 4 10 -3 6 -8 10 -11 10 -2 0
-4 -4 -4 -10z"/>
<path d="M580 2470 c0 -5 5 -10 10 -10 6 0 10 5 10 10 0 6 -4 10 -10 10 -5 0
-10 -4 -10 -10z"/>
<path d="M628 2463 c-22 -6 -23 -17 -3 -33 14 -11 19 -7 16 13 0 4 5 7 13 7 8
0 18 5 21 10 6 10 -15 12 -47 3z"/>
<path d="M3140 2461 c0 -5 5 -13 10 -16 6 -3 10 -2 10 4 0 5 -4 13 -10 16 -5
3 -10 2 -10 -4z"/>
<path d="M1801 2444 c0 -11 3 -14 6 -6 3 7 2 16 -1 19 -3 4 -6 -2 -5 -13z"/>
<path d="M3638 2425 c-3 -15 0 -26 9 -29 8 -3 11 -1 8 4 -3 6 1 10 9 10 22 0
20 13 -3 27 -16 10 -20 9 -23 -12z"/>
<path d="M3710 2440 c0 -5 6 -10 13 -10 7 -1 4 -7 -7 -15 -11 -8 -16 -21 -13
-29 4 -10 -3 -22 -19 -32 -23 -16 -24 -18 -9 -40 8 -13 15 -31 15 -40 0 -12 6
-15 25 -12 33 7 61 -19 60 -54 0 -21 -5 -28 -20 -28 -19 0 -19 -1 -1 -17 12
-12 20 -14 23 -7 4 13 43 7 43 -7 0 -10 -11 -12 -57 -9 -19 1 -33 -3 -33 -10
0 -7 8 -9 19 -5 11 3 22 1 26 -5 3 -5 -1 -10 -9 -10 -9 0 -16 -5 -16 -11 0
-11 16 -9 53 6 13 5 17 2 17 -14 0 -18 -6 -21 -42 -22 -32 -1 -37 -3 -20 -7
13 -4 23 -10 23 -14 -2 -19 0 -20 14 -8 8 7 15 8 15 3 0 -5 -9 -16 -21 -26
-19 -17 -20 -17 -17 0 2 11 -3 18 -12 18 -8 0 -15 -7 -15 -15 0 -25 -32 -49
-64 -48 -27 1 -30 4 -25 24 5 19 1 26 -22 34 -16 6 -32 17 -37 23 -6 8 -7 6
-4 -5 7 -20 -15 -40 -36 -32 -27 10 -29 -16 -3 -37 25 -20 36 -59 16 -59 -5 0
-10 7 -10 15 0 8 -4 15 -10 15 -5 0 -10 -9 -10 -21 0 -12 -5 -19 -12 -16 -7 2
-13 11 -12 19 1 7 -7 15 -17 15 -11 1 -19 -2 -19 -8 0 -5 5 -9 10 -9 14 0 13
-57 -2 -66 -8 -5 -9 0 -6 14 4 12 2 22 -3 22 -5 0 -9 -5 -9 -10 0 -7 -7 -7
-20 0 -11 6 -17 16 -14 22 4 6 3 8 -4 4 -5 -3 -13 0 -15 6 -4 10 -8 9 -16 -2
-8 -11 -5 -17 11 -23 17 -6 19 -10 9 -20 -9 -9 -14 -9 -21 3 -5 8 -10 11 -10
5 -1 -5 -8 4 -18 20 l-17 30 -3 -24 c-2 -15 3 -30 14 -38 14 -10 15 -15 4 -28
-10 -12 -16 -13 -26 -4 -11 9 -14 7 -14 -10 0 -24 -8 -26 -32 -7 -16 12 -16
14 7 26 30 16 28 35 -3 36 -12 1 -19 -3 -16 -7 3 -5 -3 -17 -12 -26 -13 -13
-19 -14 -22 -5 -2 6 -11 12 -20 12 -15 0 -15 -2 -2 -10 8 -5 12 -10 7 -10 -15
0 57 -123 74 -127 14 -4 16 -10 10 -22 -5 -9 -5 -38 0 -69 7 -33 7 -78 0 -121
-9 -69 -53 -186 -77 -206 -9 -8 -9 -16 -2 -29 9 -16 7 -17 -12 -11 -19 6 -21
4 -15 -15 6 -19 4 -21 -14 -15 -21 6 -95 -35 -97 -55 -1 -6 -2 -14 -3 -19 -1
-11 -30 -8 -39 5 -4 5 -51 9 -104 9 -54 0 -93 2 -88 3 14 5 13 22 -2 22 -23 0
-103 64 -137 109 -48 64 -80 146 -81 206 0 28 -4 45 -8 39 -8 -12 -72 -7 -72
6 0 12 57 33 69 25 7 -4 12 8 13 32 2 51 2 56 11 70 4 6 3 23 -2 36 -7 19 -6
28 5 37 7 7 14 9 14 5 0 -5 9 0 20 10 11 10 20 24 20 30 0 7 6 15 14 18 8 3
20 15 26 26 9 17 8 20 -5 15 -11 -5 -13 -2 -9 10 4 10 13 15 23 12 15 -5 61
24 61 38 0 3 -16 21 -36 40 -20 19 -31 36 -26 40 6 3 17 -3 25 -15 19 -26 51
-21 55 9 3 18 7 21 17 12 10 -8 10 -16 1 -35 -6 -14 -14 -25 -18 -25 -5 0 -8
-5 -8 -12 0 -9 3 -9 12 0 15 15 31 16 22 0 -4 -6 -3 -8 3 -5 16 10 22 57 11
89 -8 24 -14 27 -36 21 -20 -5 -24 -3 -20 9 4 8 -2 20 -13 26 -10 7 -19 8 -19
3 0 -5 6 -11 13 -14 17 -6 7 -14 -32 -22 -25 -5 -32 -4 -26 5 4 7 2 16 -6 20
-10 7 -10 11 0 24 11 13 11 16 0 17 -8 0 -24 2 -36 3 -12 1 -20 -1 -17 -6 3
-4 0 -8 -5 -8 -6 0 -11 -4 -11 -10 0 -16 28 -11 39 7 8 15 9 14 9 -7 0 -14 4
-38 7 -55 5 -20 4 -27 -3 -20 -5 6 -12 19 -15 30 -2 11 -7 -2 -12 -32 -7 -47
-9 -51 -26 -40 -15 9 -18 19 -13 44 5 27 3 33 -11 33 -12 0 -16 -6 -12 -20 3
-11 1 -20 -3 -20 -24 0 -40 15 -40 35 0 27 -18 43 -25 23 -5 -12 -32 -15 -67
-9 -15 2 -8 28 11 45 12 11 21 14 26 7 3 -6 1 -11 -6 -11 -7 0 -9 -3 -6 -7 4
-3 1 -13 -6 -22 -10 -13 -7 -12 13 2 14 9 35 22 47 27 15 6 21 15 17 25 -5 12
-9 13 -20 4 -11 -9 -18 -8 -32 5 -26 23 -47 20 -62 -9 -13 -25 -30 -34 -30
-16 0 6 -9 9 -19 8 -11 0 -17 -6 -14 -14 3 -7 0 -13 -6 -13 -7 0 -18 -15 -26
-32 -8 -18 -14 -27 -15 -20 0 14 -30 17 -30 3 0 -5 -15 -11 -34 -13 -31 -3
-34 -2 -30 19 3 13 0 23 -6 23 -6 0 -8 -4 -5 -10 3 -5 -2 -10 -13 -10 -15 0
-18 -5 -14 -25 7 -41 -14 -28 -33 20 -14 32 -22 42 -31 34 -7 -5 -9 -20 -6
-32 3 -12 7 -16 10 -9 4 13 23 17 21 5 -5 -31 3 -53 19 -53 13 0 10 -6 -12
-23 -28 -23 -28 -24 -12 -49 11 -17 13 -28 7 -33 -6 -3 -11 -3 -11 1 0 4 -6 0
-12 -9 -16 -20 -58 -12 -58 11 0 8 -3 12 -7 9 -3 -4 -17 2 -29 14 -14 13 -24
17 -29 10 -3 -6 1 -11 10 -11 9 0 13 -5 10 -11 -4 -5 -4 -22 0 -37 l8 -27 7
25 c7 23 8 24 14 5 4 -11 12 -28 18 -39 13 -25 -8 -48 -25 -26 -8 11 -21 14
-42 10 l-30 -6 43 -14 43 -14 -38 -23 c-32 -20 -34 -23 -11 -18 20 5 29 2 37
-13 6 -11 8 -21 6 -24 -3 -3 2 -5 10 -5 8 0 15 4 15 8 0 5 7 6 15 3 8 -4 22
-1 30 6 12 10 13 8 10 -9 -2 -12 0 -21 4 -21 5 0 16 -16 26 -36 10 -22 22 -34
30 -30 10 3 12 0 8 -11 -4 -9 1 -19 11 -25 16 -9 16 -11 -4 -25 -16 -11 -24
-12 -29 -4 -5 8 -14 4 -29 -12 -15 -15 -18 -27 -12 -37 8 -13 11 -12 23 3 12
17 14 17 26 3 11 -13 11 -17 -1 -21 -7 -3 -15 -20 -16 -37 -3 -39 -5 -41 -31
-33 -18 5 -20 12 -16 46 5 41 -12 56 -22 19 -7 -25 -23 -16 -23 13 -1 25 -24
60 -33 50 -4 -3 -7 -13 -7 -22 0 -8 -13 -29 -28 -46 -36 -38 -58 -87 -37 -78
8 3 15 14 15 24 0 10 5 19 11 19 7 0 9 -12 7 -31 -4 -25 -1 -33 14 -37 10 -2
18 -11 18 -18 0 -10 -7 -13 -24 -8 -13 3 -27 1 -31 -5 -4 -8 -13 -8 -28 1 -21
10 -21 10 -7 -7 11 -13 12 -19 3 -22 -7 -2 -9 -11 -6 -20 4 -11 2 -14 -5 -9
-7 4 -19 0 -28 -8 -8 -9 -26 -16 -38 -16 -33 0 -67 -40 -60 -70 5 -20 3 -22
-5 -10 -10 13 -12 13 -21 0 -8 -12 -11 -13 -19 -1 -6 9 -11 10 -15 2 -4 -6 -2
-11 5 -11 8 0 8 -4 1 -13 -14 -16 14 -77 35 -77 11 0 13 -7 9 -25 -4 -14 -2
-25 4 -25 5 0 10 -7 10 -16 0 -9 -5 -12 -12 -8 -8 5 -9 0 -6 -14 4 -12 2 -22
-3 -22 -5 0 -9 9 -9 20 0 11 -5 20 -11 20 -6 0 -9 -6 -6 -14 7 -18 -14 -66
-29 -66 -6 0 -17 7 -24 15 -16 19 -70 16 -86 -4 -8 -10 -8 -20 0 -37 11 -25
26 -32 26 -13 0 6 6 9 14 6 8 -3 16 -1 18 5 2 6 10 8 16 4 19 -11 14 -26 -8
-26 -11 0 -20 -4 -20 -10 0 -5 5 -10 11 -10 6 0 8 -9 3 -22 -7 -23 -6 -23 14
-4 12 10 22 30 24 44 2 14 9 27 16 30 16 5 5 -49 -12 -60 -6 -4 -7 -8 -2 -8 5
0 3 -7 -4 -15 -10 -12 -10 -15 4 -15 10 0 16 -9 17 -22 0 -13 3 -17 6 -10 2 6
11 12 19 12 18 0 18 15 1 32 -20 20 -1 33 50 34 37 0 40 -1 30 -17 -6 -10 -16
-15 -21 -11 -6 3 -22 7 -36 8 -21 3 -22 1 -7 -7 9 -6 17 -17 17 -26 0 -13 3
-14 12 -5 18 18 28 15 28 -9 0 -18 -4 -21 -30 -16 -24 5 -33 2 -50 -23 -12
-17 -16 -31 -10 -35 5 -3 10 -1 10 4 0 6 6 11 14 11 8 0 16 6 19 13 3 9 9 9
27 -1 12 -7 24 -11 27 -8 3 3 12 -1 20 -9 16 -16 43 -20 43 -7 0 5 -9 18 -20
30 -11 11 -16 23 -11 26 8 6 53 -27 52 -38 -4 -30 11 -35 35 -11 14 13 14 15
-1 15 -13 0 -16 8 -13 38 2 20 8 40 13 44 6 5 4 8 -5 8 -13 0 -13 1 0 10 22
14 30 12 23 -7 -5 -13 -2 -15 16 -10 21 5 22 4 7 -12 -9 -10 -14 -25 -10 -34
8 -22 23 -12 17 12 -6 25 24 35 53 16 13 -8 30 -15 38 -15 10 0 13 -6 10 -15
-5 -11 -2 -13 10 -9 17 7 18 10 20 67 1 20 -2 37 -6 37 -7 0 -12 -26 -10 -50
1 -11 -51 -7 -67 6 -9 7 -25 20 -36 28 -17 13 -18 15 -3 16 9 0 23 -7 32 -15
11 -12 21 -13 41 -5 22 8 26 15 22 35 -4 22 -1 25 19 22 26 -3 45 -17 24 -17
-9 0 -8 -6 5 -20 10 -11 13 -20 7 -20 -7 0 -12 -7 -12 -17 0 -14 2 -15 18 -1
9 9 23 13 30 11 16 -6 15 5 -3 24 -8 8 -13 19 -10 24 9 13 44 -13 38 -28 -4
-11 1 -12 21 -7 16 4 26 2 26 -5 0 -6 -9 -11 -20 -11 -15 0 -20 -7 -20 -25 0
-14 -4 -25 -10 -25 -5 0 -10 6 -10 14 0 19 -21 26 -43 14 -10 -5 -14 -14 -10
-21 4 -7 8 -19 8 -27 0 -10 9 -14 28 -12 16 2 27 -2 28 -10 1 -7 4 1 8 17 5
24 11 29 29 27 12 -2 22 2 22 7 0 6 -7 11 -15 11 -8 0 -15 4 -15 9 0 10 50 25
58 16 3 -3 0 -5 -6 -5 -7 0 -12 -11 -12 -25 0 -13 -8 -29 -17 -34 -10 -6 -12
-11 -5 -11 6 0 12 -8 12 -18 0 -12 -15 -25 -41 -36 -22 -10 -38 -20 -36 -23 3
-2 15 1 27 7 18 10 24 8 37 -7 12 -15 14 -15 10 -2 -4 13 -1 15 15 11 25 -6
35 -31 17 -42 -7 -5 -10 -12 -6 -16 4 -4 2 -13 -4 -21 -6 -7 -8 -13 -4 -13 4
0 13 7 19 15 9 11 14 12 28 1 14 -10 15 -16 5 -37 -18 -35 -10 -59 19 -59 15
0 24 6 24 15 0 8 -9 15 -20 15 -11 0 -20 5 -20 10 0 6 9 10 20 10 11 0 20 5
20 11 0 5 5 7 11 3 7 -4 9 -22 6 -45 -4 -27 -1 -39 10 -43 21 -8 25 -7 18 4
-3 6 -2 10 2 10 5 0 13 10 18 23 8 17 6 26 -8 40 -10 10 -15 22 -12 27 3 5 1
11 -5 15 -5 3 -10 1 -10 -4 0 -6 -7 -11 -15 -11 -18 0 -20 17 -3 22 6 2 13 15
15 28 2 13 5 25 7 27 8 8 56 -10 50 -18 -3 -5 1 -9 9 -9 24 0 86 -54 87 -75 0
-17 2 -18 11 -5 9 12 10 11 6 -7 -3 -13 -1 -23 3 -23 5 0 10 10 12 22 2 15 9
22 20 22 12 -1 17 5 15 19 -1 16 4 22 21 23 12 1 25 -3 28 -7 3 -5 -2 -9 -10
-9 -9 0 -16 -8 -16 -18 0 -15 6 -18 30 -14 31 4 70 53 70 86 0 10 8 16 21 16
20 0 21 -4 15 -45 -8 -52 -3 -55 30 -19 29 30 30 41 7 47 -28 6 35 29 71 25
23 -2 32 -9 34 -25 4 -25 12 -29 29 -12 6 6 19 12 29 13 10 2 19 10 19 19 0 9
5 16 10 15 6 0 9 -9 7 -19 -2 -9 1 -20 7 -23 5 -3 7 2 4 13 -3 10 0 22 6 25 7
4 11 -1 11 -13 0 -22 20 -30 21 -8 0 6 4 3 8 -7 7 -17 9 -17 29 9 12 15 23 25
23 21 1 -3 2 -11 3 -16 1 -13 53 -40 75 -40 13 0 14 2 2 9 -12 8 -12 11 0 23
21 19 39 20 45 4 4 -11 10 -12 22 -6 10 6 28 14 42 20 14 5 32 14 40 20 8 5
41 21 73 34 31 14 57 30 57 36 0 5 6 10 13 10 8 0 24 9 37 20 13 11 27 20 31
20 4 0 21 12 38 26 17 14 46 28 64 31 72 11 131 -73 95 -136 -9 -14 -14 -32
-12 -39 1 -7 0 -8 -2 -3 -3 6 -35 -11 -72 -36 -93 -63 -93 -63 -83 -82 8 -13
2 -16 -33 -18 -46 -3 -129 -41 -134 -62 -1 -7 2 -10 8 -6 5 3 10 1 10 -4 0 -6
14 -11 31 -11 26 0 29 -3 24 -19 -5 -17 0 -21 30 -27 43 -8 53 -20 23 -27 -12
-4 -19 -9 -16 -12 3 -4 15 -2 26 4 26 14 52 14 52 1 0 -5 -9 -10 -20 -10 -13
0 -20 -7 -20 -20 0 -11 7 -20 15 -20 8 0 15 -7 15 -15 0 -21 20 -19 21 3 1 9
1 20 0 25 -1 9 0 9 35 -3 32 -11 42 -43 22 -67 -8 -10 -5 -13 16 -13 14 0 26
5 26 10 0 6 -4 10 -9 10 -5 0 -7 9 -4 21 3 12 11 18 19 15 8 -3 14 1 14 10 0
8 -20 23 -45 34 -44 19 -45 20 -45 67 0 31 3 43 9 34 6 -9 18 -11 34 -8 35 9
61 -22 55 -68 -4 -36 -1 -39 38 -36 24 2 54 -23 54 -45 0 -10 8 -13 25 -10 20
4 25 1 25 -17 0 -16 -3 -19 -9 -8 -5 7 -14 11 -19 7 -7 -4 -3 -15 11 -29 20
-20 23 -21 29 -5 9 22 28 23 28 2 0 -11 6 -14 23 -9 40 13 87 37 87 46 0 5 9
9 20 9 11 0 20 7 20 16 0 8 4 12 10 9 13 -8 90 37 90 52 0 6 5 15 12 19 7 5 8
3 3 -6 -6 -9 -4 -11 4 -6 7 5 10 10 7 13 -3 3 -1 14 5 24 10 20 39 26 39 9 0
-6 8 -5 20 2 11 7 19 20 17 28 -1 8 3 14 10 13 17 -4 131 104 150 141 9 17 19
33 22 36 4 3 15 19 26 35 18 27 20 45 18 185 -2 136 -23 373 -39 453 -3 15
-10 27 -15 27 -5 0 -9 5 -9 11 0 5 5 7 12 3 8 -5 9 0 5 15 -3 12 -15 82 -28
155 l-23 134 -32 -5 c-19 -3 -34 0 -39 7 -5 8 -4 11 3 6 14 -9 62 3 62 16 0 5
-10 8 -22 6 -16 -2 -24 3 -26 17 -6 33 -16 35 -36 7 -17 -22 -17 -25 -3 -19
20 8 21 0 2 -33 -12 -23 -14 -23 -21 -7 -3 10 -4 40 -1 67 5 45 4 49 -16 52
-15 2 -23 11 -25 28 -4 25 -3 25 13 5 16 -20 16 -19 9 5 -9 35 -16 40 -42 33
-14 -3 -21 -11 -18 -19 3 -7 1 -16 -4 -19 -6 -4 -10 1 -10 10 0 9 -11 27 -24
40 -17 16 -23 31 -19 46 3 11 1 24 -6 28 -17 11 -3 41 16 34 10 -4 14 -2 9 5
-3 6 -20 10 -36 10 -16 -1 -27 -5 -25 -9 3 -4 -4 -10 -15 -14 -11 -4 -18 -11
-15 -16 4 -5 2 -9 -4 -9 -17 0 -4 81 16 96 17 13 17 13 -4 14 -32 0 -37 17 -8
24 14 4 25 10 25 14 0 11 -134 10 -141 -1 -4 -5 -10 0 -14 12 -6 21 -16 26
-28 14 -4 -3 -2 -12 4 -19 9 -11 3 -22 -23 -48 -28 -28 -33 -38 -26 -62 4 -15
3 -34 -2 -43 -8 -13 -9 -12 -10 7 0 12 -6 22 -15 22 -8 0 -12 -6 -9 -14 7 -17
-8 -27 -24 -17 -6 3 -9 17 -5 29 3 12 9 19 14 16 5 -3 6 2 3 10 -3 8 0 25 7
38 11 21 11 22 -4 9 -15 -12 -19 -10 -35 9 -16 20 -19 21 -31 6 -7 -9 -22 -16
-32 -16 -20 0 -25 11 -11 24 4 4 7 13 7 19 0 7 16 13 35 15 19 2 43 11 53 19
10 10 17 12 17 5 0 -7 5 -12 10 -12 6 0 10 9 10 21 0 11 -4 18 -9 14 -5 -3
-12 3 -16 14 -4 14 -12 17 -27 13 -17 -4 -20 -2 -15 11 7 20 -1 47 -14 47 -5
0 -9 -9 -9 -20 0 -11 -6 -20 -12 -20 -7 -1 -1 -7 14 -16 32 -17 29 -34 -9 -51
-37 -18 -52 -16 -28 3 16 12 17 16 6 23 -8 5 -10 14 -6 22 6 9 4 11 -8 6 -9
-3 -19 -2 -22 3 -6 10 52 70 69 70 6 0 22 -14 35 -31 26 -32 41 -26 41 19 0
12 5 22 10 22 16 0 11 28 -6 38 -11 6 -15 17 -11 31 4 17 2 19 -13 11 -20 -11
-20 -21 0 -63 7 -15 11 -30 7 -33 -11 -11 -25 6 -31 41 -8 39 -24 54 -37 34
-6 -11 -11 -11 -21 -1 -9 9 -9 12 1 12 11 0 11 3 1 15 -15 18 1 20 18 3 9 -9
15 -9 24 0 21 21 -6 38 -37 24 -31 -14 -45 -15 -45 -3 0 5 10 11 23 13 12 2
22 10 23 18 1 24 -7 32 -21 20 -7 -6 -29 -11 -48 -12 -20 -1 -36 -4 -35 -7 2
-19 -3 -31 -13 -31 -7 0 -9 10 -7 24 3 15 -2 27 -14 35 -11 7 -18 7 -18 1z
m90 -44 c0 -3 -4 -8 -10 -11 -5 -3 -10 -1 -10 4 0 6 5 11 10 11 6 0 10 -2 10
-4z m-40 -66 c0 -5 -4 -10 -10 -10 -5 0 -10 5 -10 10 0 6 5 10 10 10 6 0 10
-4 10 -10z m46 -27 c-10 -10 -19 5 -10 18 6 11 8 11 12 0 2 -7 1 -15 -2 -18z
m-21 -13 c3 -5 2 -10 -4 -10 -5 0 -13 5 -16 10 -3 6 -2 10 4 10 5 0 13 -4 16
-10z m135 -262 c0 -4 -6 -11 -14 -15 -18 -11 -36 -47 -36 -72 0 -12 -4 -21 -9
-21 -19 0 -22 20 -6 49 21 41 19 61 -4 34 -16 -19 -20 -20 -25 -7 -7 19 1 34
18 34 8 0 19 7 26 15 9 11 16 12 31 2 10 -6 19 -15 19 -19z m160 3 c0 -13 -8
-18 -30 -18 -18 0 -30 6 -30 14 0 7 9 13 20 13 11 0 20 5 20 11 0 5 5 7 10 4
6 -3 10 -14 10 -24z m-463 -33 c-3 -8 -6 -5 -6 6 -1 11 2 17 5 13 3 -3 4 -12
1 -19z m441 -10 c-6 -18 -25 -21 -31 -5 -3 8 3 13 15 14 10 1 18 -3 16 -9z
m-314 -26 c-5 -14 -2 -13 11 3 16 20 17 20 13 -5 -2 -16 -10 -26 -24 -28 -18
-3 -20 1 -16 27 2 17 8 28 13 26 4 -3 6 -13 3 -23z m-1454 -2 c0 -5 -4 -10 -9
-10 -6 0 -13 5 -16 10 -3 6 1 10 9 10 9 0 16 -4 16 -10z m-64 -37 c-10 -10
-19 5 -10 18 6 11 8 11 12 0 2 -7 1 -15 -2 -18z m1929 17 c-3 -5 -11 -10 -16
-10 -6 0 -7 5 -4 10 3 6 11 10 16 10 6 0 7 -4 4 -10z m-1700 -20 c3 -5 1 -10
-4 -10 -6 0 -11 5 -11 10 0 6 2 10 4 10 3 0 8 -4 11 -10z m225 -4 c0 -3 -4 -8
-10 -11 -5 -3 -10 -1 -10 4 0 6 5 11 10 11 6 0 10 -2 10 -4z m60 -12 c0 -14
-3 -14 -15 -4 -8 7 -15 14 -15 16 0 2 7 4 15 4 8 0 15 -7 15 -16z m-480 -15
c0 -18 -2 -19 -15 -9 -8 7 -15 16 -15 21 0 5 7 9 15 9 9 0 15 -9 15 -21z m290
2 c0 -21 -23 -45 -33 -34 -12 11 -8 41 6 46 22 9 27 7 27 -12z m90 9 c0 -5 -6
-10 -14 -10 -9 0 -12 -8 -9 -24 6 -30 -23 -44 -32 -15 -5 13 1 26 17 39 26 22
38 25 38 10z m90 -50 c9 -17 8 -20 -14 -20 -29 0 -44 19 -25 31 21 13 27 11
39 -11z m1008 -10 c-7 -11 -16 -20 -21 -20 -4 0 -3 9 3 20 6 11 15 20 20 20 6
0 5 -9 -2 -20z m-1498 0 c0 -5 -5 -10 -11 -10 -5 0 -7 5 -4 10 3 6 8 10 11 10
2 0 4 -4 4 -10z m330 -20 c0 -5 -4 -10 -10 -10 -5 0 -10 5 -10 10 0 6 5 10 10
10 6 0 10 -4 10 -10z m40 -16 c0 -8 -5 -12 -10 -9 -6 4 -8 11 -5 16 9 14 15
11 15 -7z m70 0 c0 -8 -4 -12 -10 -9 -5 3 -10 10 -10 16 0 5 5 9 10 9 6 0 10
-7 10 -16z m-20 -30 c0 -20 -4 -25 -16 -20 -9 3 -18 6 -20 6 -2 0 -4 9 -4 20
0 13 7 20 20 20 15 0 20 -7 20 -26z m1580 6 c0 -11 -6 -20 -14 -20 -21 0 -31
21 -15 31 22 14 29 11 29 -11z m129 -2 c17 -10 17 -13 2 -30 -27 -32 -59 -18
-46 22 7 23 18 25 44 8z m-2194 -28 c3 -5 1 -10 -4 -10 -6 0 -11 5 -11 10 0 6
2 10 4 10 3 0 8 -4 11 -10z m-35 -20 c0 -11 -2 -20 -4 -20 -2 0 -6 9 -9 20 -3
11 -1 20 4 20 5 0 9 -9 9 -20z m480 10 c0 -5 -7 -10 -16 -10 -8 0 -12 5 -9 10
3 6 10 10 16 10 5 0 9 -4 9 -10z m30 -40 c0 -5 -7 -10 -15 -10 -8 0 -15 5 -15
10 0 6 7 10 15 10 8 0 15 -4 15 -10z m-330 -6 c0 -3 -7 -12 -15 -20 -16 -17
-18 -14 -9 10 6 15 24 23 24 10z m1738 -27 c2 -10 -3 -17 -12 -17 -10 0 -16 9
-16 21 0 24 23 21 28 -4z m-1733 -27 c3 -5 1 -10 -4 -10 -6 0 -11 5 -11 10 0
6 2 10 4 10 3 0 8 -4 11 -10z m275 -30 c0 -5 -4 -10 -10 -10 -5 0 -10 5 -10
10 0 6 5 10 10 10 6 0 10 -4 10 -10z m1496 -77 c-10 -10 -19 5 -10 18 6 11 8
11 12 0 2 -7 1 -15 -2 -18z m-1526 -14 c0 -14 -17 -10 -23 5 -4 10 -1 13 9 9
7 -3 14 -9 14 -14z m39 -22 c0 -21 -1 -21 -9 -2 -12 28 -12 37 0 30 6 -3 10
-16 9 -28z m1501 -9 c0 -5 -4 -6 -10 -3 -5 3 -10 -1 -10 -9 0 -18 -16 -21 -25
-6 -9 15 14 40 31 33 8 -3 14 -9 14 -15z m384 -24 c5 -14 4 -15 -9 -4 -17 14
-19 20 -6 20 5 0 12 -7 15 -16z m-1954 -14 c0 -5 -4 -10 -10 -10 -5 0 -10 5
-10 10 0 6 5 10 10 10 6 0 10 -4 10 -10z m1918 -1 c-2 -6 -8 -10 -13 -10 -5 0
-11 4 -13 10 -2 6 4 11 13 11 9 0 15 -5 13 -11z m-1954 -8 c7 -11 -3 -41 -14
-41 -11 0 -21 30 -14 41 3 5 9 9 14 9 5 0 11 -4 14 -9z m66 -11 c0 -5 -4 -10
-10 -10 -5 0 -10 5 -10 10 0 6 5 10 10 10 6 0 10 -4 10 -10z m-250 -14 c0 -3
-4 -8 -10 -11 -5 -3 -10 -1 -10 4 0 6 5 11 10 11 6 0 10 -2 10 -4z m1520 -6
c0 -5 -4 -10 -10 -10 -5 0 -10 5 -10 10 0 6 5 10 10 10 6 0 10 -4 10 -10z
m230 -6 c0 -17 -22 -14 -28 4 -2 7 3 12 12 12 9 0 16 -7 16 -16z m-1603 -31
c-9 -9 -20 -13 -24 -9 -4 4 -1 11 7 16 25 16 35 11 17 -7z m987 8 c7 -11 -32
-56 -41 -48 -7 8 17 57 28 57 4 0 10 -4 13 -9z m796 0 c0 -6 -4 -13 -10 -16
-5 -3 -10 1 -10 9 0 9 5 16 10 16 6 0 10 -4 10 -9z m-1685 -51 c3 -5 -3 -10
-14 -10 -12 0 -21 5 -21 10 0 6 6 10 14 10 8 0 18 -4 21 -10z m-385 -21 c0 -5
-10 -9 -21 -9 -18 0 -19 2 -9 15 12 15 30 12 30 -6z m1636 6 c4 -9 -2 -23 -14
-33 -15 -13 -18 -22 -10 -35 5 -10 6 -26 3 -37 -5 -17 -2 -20 21 -20 33 0 22
-15 -18 -25 -23 -6 -28 -4 -29 11 -1 20 -1 147 0 152 3 10 43 -1 47 -13z m-96
-30 c0 -8 -4 -15 -10 -15 -5 0 -10 7 -10 15 0 8 5 15 10 15 6 0 10 -7 10 -15z
m266 1 c16 -16 19 -40 4 -31 -12 8 -33 45 -25 45 4 0 13 -6 21 -14z m-1338 -8
c-2 -6 -10 -14 -16 -16 -7 -2 -10 2 -6 12 7 18 28 22 22 4z m672 -2 c0 -17
-27 -29 -35 -16 -4 6 -3 15 0 20 9 15 35 12 35 -4z m1210 -1 c0 -8 -4 -15 -10
-15 -5 0 -10 7 -10 15 0 8 5 15 10 15 6 0 10 -7 10 -15z m-2060 -11 c0 -8 -5
-12 -10 -9 -6 4 -8 11 -5 16 9 14 15 11 15 -7z m1400 2 c0 -20 -16 -29 -41
-21 -16 5 -18 10 -8 21 15 18 49 18 49 0z m-130 -6 c-8 -5 -19 -10 -25 -10 -5
0 -3 5 5 10 8 5 20 10 25 10 6 0 3 -5 -5 -10z m-70 -15 c20 -24 5 -47 -27 -39
-37 9 -37 9 -16 33 21 25 27 26 43 6z m-886 -37 c-3 -4 -14 -8 -24 -8 -19 0
-19 1 -3 20 12 14 19 16 24 8 4 -7 5 -16 3 -20z m800 17 c-4 -8 -10 -15 -15
-15 -5 0 -9 7 -9 15 0 8 7 15 15 15 9 0 12 -6 9 -15z m-1669 -17 c-3 -8 -12
-15 -20 -15 -20 0 -19 7 2 23 21 15 26 13 18 -8z m320 12 c3 -5 17 -10 31 -10
17 0 24 -5 24 -20 0 -23 -18 -27 -26 -5 -7 17 -49 20 -59 5 -3 -5 3 -10 14
-10 11 0 23 -4 26 -10 8 -13 -11 -13 -36 0 -22 12 -24 25 -6 45 14 17 24 18
32 5z m222 -1 c25 -9 26 -12 11 -20 -20 -11 -62 6 -53 22 8 11 8 11 42 -2z
m1246 -9 c-6 -23 7 -26 26 -7 10 10 12 8 9 -7 -1 -10 -13 -22 -25 -27 -21 -8
-23 -5 -23 26 0 19 4 35 9 35 5 0 7 -9 4 -20z m227 16 c0 -3 -4 -8 -10 -11 -5
-3 -10 -1 -10 4 0 6 5 11 10 11 6 0 10 -2 10 -4z m-496 -47 c-3 -5 -10 -7 -15
-3 -5 3 -7 10 -3 15 3 5 10 7 15 3 5 -3 7 -10 3 -15z m176 11 c0 -5 -4 -10
-10 -10 -5 0 -10 5 -10 10 0 6 5 10 10 10 6 0 10 -4 10 -10z m-1546 -6 c9 -3
13 -11 10 -16 -4 -6 0 -14 7 -19 11 -6 11 -11 1 -21 -9 -9 -12 -9 -12 1 0 7
-6 19 -14 26 -12 12 -15 12 -20 0 -3 -8 -9 -15 -15 -15 -10 0 -21 36 -13 44 7
8 36 8 56 0z m536 -16 c0 -12 3 -18 7 -15 3 4 12 2 19 -4 10 -8 11 -5 7 11 -5
18 -2 21 13 18 14 -2 19 -12 19 -38 0 -29 3 -35 20 -33 11 1 14 0 8 -3 -7 -3
-13 -14 -13 -25 0 -10 -4 -19 -10 -19 -5 0 -10 -6 -10 -14 0 -7 -7 -19 -15
-26 -8 -7 -15 -21 -15 -31 0 -15 -5 -17 -29 -13 -24 5 -29 2 -35 -20 -9 -36
-30 -34 -23 3 4 21 1 34 -13 46 -11 10 -20 26 -20 36 0 10 -7 24 -15 33 -12
12 -13 16 -2 23 7 4 21 21 31 36 12 21 23 27 37 24 16 -4 18 -3 9 8 -8 10 -7
14 2 18 24 10 28 7 28 -15z m1037 0 c-3 -8 -6 -5 -6 6 -1 11 2 17 5 13 3 -3 4
-12 1 -19z m-1697 2 c0 -5 -7 -7 -15 -4 -8 4 -15 8 -15 10 0 2 7 4 15 4 8 0
15 -4 15 -10z m400 0 c0 -5 -4 -10 -9 -10 -6 0 -13 5 -16 10 -3 6 1 10 9 10 9
0 16 -4 16 -10z m1593 3 c-7 -2 -13 -13 -13 -24 0 -10 -7 -19 -15 -19 -8 0
-15 9 -15 21 0 11 5 17 10 14 6 -3 10 -1 10 4 0 6 8 11 18 10 10 0 12 -3 5 -6z
m-1482 -38 c0 -6 -10 -12 -23 -13 -19 -4 -20 -2 -9 12 15 17 33 18 32 1z
m-581 -15 c0 -19 -18 -19 -23 -1 -3 14 -1 18 9 14 8 -3 14 -9 14 -13z m1711
-5 c1 -17 -18 -17 -25 0 -4 11 -1 15 10 13 8 -2 15 -7 15 -13z m269 -5 c0 -5
-4 -10 -10 -10 -5 0 -10 5 -10 10 0 6 5 10 10 10 6 0 10 -4 10 -10z m-982 -17
c20 -20 25 -62 10 -80 -5 -7 -8 -19 -5 -27 5 -11 -1 -14 -21 -11 -62 8 -74 23
-65 78 5 31 15 41 61 56 2 1 11 -7 20 -16z m677 -3 c-3 -5 -10 -10 -16 -10 -5
0 -9 5 -9 10 0 6 7 10 16 10 8 0 12 -4 9 -10z m-1465 -10 c0 -5 -4 -10 -10
-10 -5 0 -10 5 -10 10 0 6 5 10 10 10 6 0 10 -4 10 -10z m861 -18 c-8 -15 -8
-22 2 -25 9 -3 8 -9 -5 -22 -10 -11 -23 -15 -34 -11 -16 6 -16 8 3 29 11 12
23 31 27 41 3 10 9 16 12 13 3 -3 1 -14 -5 -25z m127 -18 c-3 -17 -5 -17 -27
5 -19 19 -21 25 -10 32 18 11 42 -13 37 -37z m-288 16 c0 -5 -5 -10 -11 -10
-5 0 -7 5 -4 10 3 6 8 10 11 10 2 0 4 -4 4 -10z m779 1 c9 -6 10 -11 2 -15
-13 -8 -31 1 -31 15 0 11 11 11 29 0z m-1334 -21 c3 -5 -3 -10 -15 -10 -12 0
-18 5 -15 10 3 6 10 10 15 10 5 0 12 -4 15 -10z m205 1 c0 -5 -7 -14 -15 -21
-13 -10 -15 -9 -15 9 0 12 6 21 15 21 8 0 15 -4 15 -9z m-65 -39 c-8 -8 -25
10 -25 26 0 13 2 13 14 -4 8 -10 13 -21 11 -22z m-70 8 c10 -11 16 -21 14 -21
-2 -1 -14 -3 -26 -4 -18 -2 -23 3 -23 21 0 29 11 30 35 4z m2183 3 c-4 -22
-22 -20 -26 1 -2 10 3 16 13 16 10 0 15 -7 13 -17z m-2430 -5 c23 -23 14 -45
-18 -45 -32 0 -36 7 -20 38 12 22 21 24 38 7z m464 -6 c4 -14 -1 -18 -26 -17
-21 0 -32 5 -34 18 -5 25 54 24 60 -1z m528 -9 c0 -13 -14 -29 -30 -35 -11 -4
-16 1 -18 18 -1 19 3 24 23 24 14 0 25 -3 25 -7z m-920 -13 c0 -5 -4 -10 -10
-10 -5 0 -10 5 -10 10 0 6 5 10 10 10 6 0 10 -4 10 -10z m555 1 c3 -5 1 -12
-5 -16 -5 -3 -10 1 -10 9 0 18 6 21 15 7z m871 -28 c-10 -10 -19 5 -10 18 6
11 8 11 12 0 2 -7 1 -15 -2 -18z m-1160 2 c-8 -8 -18 -15 -22 -15 -3 0 -1 7 6
15 7 8 17 15 22 15 5 0 3 -7 -6 -15z m44 11 c0 -3 -4 -8 -10 -11 -5 -3 -10 -1
-10 4 0 6 5 11 10 11 6 0 10 -2 10 -4z m-155 -36 c-4 -12 -9 -19 -12 -17 -3 3
-2 15 2 27 4 12 9 19 12 17 3 -3 2 -15 -2 -27z m658 15 c4 -8 2 -17 -4 -21
-15 -9 -39 3 -39 21 0 19 36 20 43 0z m-939 -4 c3 -5 -3 -11 -15 -14 -16 -4
-18 -3 -8 9 13 16 16 17 23 5z m136 5 c0 -3 -4 -8 -10 -11 -5 -3 -10 -1 -10 4
0 6 5 11 10 11 6 0 10 -2 10 -4z m34 -8 c-27 -44 -54 -60 -54 -33 0 8 6 15 14
15 8 0 16 7 20 15 3 8 10 15 16 15 6 0 8 -5 4 -12z m291 2 c-3 -5 -11 -10 -16
-10 -6 0 -7 5 -4 10 3 6 11 10 16 10 6 0 7 -4 4 -10z m190 0 c3 -5 1 -10 -4
-10 -6 0 -11 5 -11 10 0 6 2 10 4 10 3 0 8 -4 11 -10z m1825 0 c0 -5 -4 -10
-10 -10 -5 0 -10 5 -10 10 0 6 5 10 10 10 6 0 10 -4 10 -10z m-2220 -10 c0 -5
-2 -10 -4 -10 -3 0 -8 5 -11 10 -3 6 -1 10 4 10 6 0 11 -4 11 -10z m59 -11
c-16 -10 -23 -4 -14 10 3 6 11 8 17 5 6 -4 5 -9 -3 -15z m541 7 c0 -3 -4 -8
-10 -11 -5 -3 -10 -1 -10 4 0 6 5 11 10 11 6 0 10 -2 10 -4z m-1115 -16 c-3
-5 -10 -10 -16 -10 -5 0 -9 5 -9 10 0 6 7 10 16 10 8 0 12 -4 9 -10z m110 -10
c3 -5 1 -10 -4 -10 -6 0 -11 5 -11 10 0 6 2 10 4 10 3 0 8 -4 11 -10z m219 4
c9 -3 13 -10 10 -15 -8 -14 -21 -11 -28 6 -6 17 -4 18 18 9z m295 -3 c8 -5 9
-11 3 -15 -14 -8 -43 4 -36 15 7 11 15 11 33 0z m239 -34 c-4 -28 -24 -32 -38
-7 -14 26 -6 40 21 33 13 -4 19 -12 17 -26z m-693 13 c17 -7 15 -9 -12 -9 -18
-1 -33 4 -33 9 0 12 17 12 45 0z m600 -10 c3 -6 -6 -15 -20 -20 -38 -14 -41
-13 -19 9 22 23 30 25 39 11z m302 4 c-3 -3 -12 -4 -19 -1 -8 3 -5 6 6 6 11 1
17 -2 13 -5z m88 -24 c0 -7 -6 -15 -12 -17 -8 -3 -13 4 -13 17 0 13 5 20 13
18 6 -3 12 -11 12 -18z m655 6 c0 -8 -4 -17 -9 -21 -12 -7 -24 12 -16 25 9 15
25 12 25 -4z m-1570 -6 c0 -5 -2 -10 -4 -10 -3 0 -8 5 -11 10 -3 6 -1 10 4 10
6 0 11 -4 11 -10z m859 -19 c8 -11 20 -17 27 -14 7 2 17 -5 24 -16 9 -18 8
-21 -10 -21 -27 0 -26 -19 2 -29 16 -6 28 -3 42 11 28 25 38 23 34 -9 -2 -24
-7 -28 -30 -26 -17 1 -28 -3 -28 -11 0 -9 -9 -12 -26 -8 -21 4 -24 9 -20 28 7
25 -15 54 -41 54 -13 0 -13 3 -3 15 7 8 10 22 6 30 -8 21 7 19 23 -4z m-881
-13 c-4 -17 -20 -28 -31 -21 -4 3 0 11 10 19 22 17 24 17 21 2z m567 2 c-3 -5
-11 -10 -16 -10 -6 0 -7 5 -4 10 3 6 11 10 16 10 6 0 7 -4 4 -10z m235 6 c0
-3 -4 -8 -10 -11 -5 -3 -10 -1 -10 4 0 6 5 11 10 11 6 0 10 -2 10 -4z m273
-11 c-2 -6 -6 -10 -10 -10 -18 -1 -32 -17 -26 -30 3 -8 0 -15 -6 -15 -6 0 -11
7 -11 15 0 8 -4 15 -10 15 -14 0 -12 27 3 33 21 8 62 2 60 -8z m-106 -1 c-3
-3 -12 -4 -19 -1 -8 3 -5 6 6 6 11 1 17 -2 13 -5z m623 -14 c0 -5 -2 -10 -4
-10 -3 0 -8 5 -11 10 -3 6 -1 10 4 10 6 0 11 -4 11 -10z m-975 -9 c7 -12 -12
-24 -25 -16 -11 7 -4 25 10 25 5 0 11 -4 15 -9z m200 -11 c-3 -5 -10 -10 -16
-10 -5 0 -9 5 -9 10 0 6 7 10 16 10 8 0 12 -4 9 -10z m-324 -33 c-8 -8 -11 -7
-11 4 0 20 13 34 18 19 3 -7 -1 -17 -7 -23z m69 23 c-8 -5 -19 -10 -25 -10 -5
0 -3 5 5 10 8 5 20 10 25 10 6 0 3 -5 -5 -10z m320 -10 c0 -5 -5 -10 -11 -10
-5 0 -7 5 -4 10 3 6 8 10 11 10 2 0 4 -4 4 -10z m1100 0 c0 -5 -5 -10 -11 -10
-5 0 -7 5 -4 10 3 6 8 10 11 10 2 0 4 -4 4 -10z m35 0 c3 -5 1 -10 -4 -10 -6
0 -11 5 -11 10 0 6 2 10 4 10 3 0 8 -4 11 -10z m-1554 -10 c6 0 7 -5 3 -11 -3
-6 -3 -14 2 -18 19 -13 32 -50 27 -72 -5 -18 -3 -21 10 -16 10 4 17 2 17 -3 0
-13 -47 -13 -55 0 -3 6 -1 10 5 10 6 0 5 11 -5 30 -8 16 -15 36 -15 44 0 8 -8
23 -17 32 -17 17 -17 18 0 11 10 -4 23 -7 28 -7z m279 0 c0 -5 -4 -10 -10 -10
-5 0 -10 5 -10 10 0 6 5 10 10 10 6 0 10 -4 10 -10z m111 -18 c-5 -2 -6 -13
-3 -25 5 -22 5 -22 -17 2 -30 34 -28 53 4 38 13 -7 20 -13 16 -15z m357 11
c-2 -9 -8 -18 -15 -20 -7 -3 -9 3 -6 16 6 25 26 28 21 4z m-417 -6 c-1 -12
-15 -9 -19 4 -3 6 1 10 8 8 6 -3 11 -8 11 -12z m1283 5 c2 -4 -1 -18 -8 -31
-10 -17 -15 -20 -21 -11 -4 7 -2 16 6 21 11 7 11 9 1 9 -7 0 -10 5 -7 10 7 12
22 13 29 2z m-1546 -25 c2 -10 -3 -17 -12 -17 -9 0 -14 8 -13 20 2 24 21 21
25 -3z m52 18 c0 -7 -30 -13 -34 -7 -3 4 4 9 15 9 10 1 19 0 19 -2z m1447 -17
c-3 -8 -6 -5 -6 6 -1 11 2 17 5 13 3 -3 4 -12 1 -19z m-987 2 c0 -5 -5 -10
-11 -10 -5 0 -7 5 -4 10 3 6 8 10 11 10 2 0 4 -4 4 -10z m30 -12 c0 -16 -3
-19 -11 -11 -6 6 -8 16 -5 22 11 17 16 13 16 -11z m-310 -22 c-14 -14 -24 0
-16 21 6 15 8 15 16 3 6 -9 5 -19 0 -24z m-40 -2 c0 -8 -4 -12 -10 -9 -5 3
-10 13 -10 21 0 8 5 12 10 9 6 -3 10 -13 10 -21z m745 16 c3 -5 1 -10 -4 -10
-6 0 -11 5 -11 10 0 6 2 10 4 10 3 0 8 -4 11 -10z m670 0 c3 -5 -1 -10 -9 -10
-9 0 -16 5 -16 10 0 6 4 10 9 10 6 0 13 -4 16 -10z m-1525 -10 c0 -5 -5 -10
-11 -10 -5 0 -7 5 -4 10 3 6 8 10 11 10 2 0 4 -4 4 -10z m489 -31 c-9 -5 -15
-4 -18 2 -2 6 3 15 10 20 9 5 15 4 18 -2 2 -6 -3 -15 -10 -20z m1421 19 c-1
-29 -17 -40 -49 -33 -37 8 -39 18 -8 33 30 15 57 15 57 0z m-585 -8 c3 -5 1
-10 -4 -10 -6 0 -11 5 -11 10 0 6 2 10 4 10 3 0 8 -4 11 -10z m95 -3 c0 -7 -9
-13 -20 -13 -25 0 -26 13 -2 19 9 3 18 5 20 6 1 0 2 -5 2 -12z m110 -2 c0 -8
-4 -15 -10 -15 -5 0 -7 7 -4 15 4 8 8 15 10 15 2 0 4 -7 4 -15z m-1500 -5 c0
-5 -4 -10 -10 -10 -5 0 -10 5 -10 10 0 6 5 10 10 10 6 0 10 -4 10 -10z m1247
-22 c4 -29 -7 -41 -30 -32 -20 7 -29 44 -11 44 8 0 14 5 14 11 0 22 24 2 27
-23z m493 22 c0 -5 -4 -10 -10 -10 -5 0 -10 5 -10 10 0 6 5 10 10 10 6 0 10
-4 10 -10z m-1620 -9 c0 -5 -7 -11 -15 -15 -15 -5 -20 5 -8 17 9 10 23 9 23
-2z m1344 -17 c3 -8 2 -12 -4 -9 -6 3 -10 10 -10 16 0 14 7 11 14 -7z m-1416
-11 c-4 -22 -22 -20 -26 1 -2 10 3 16 13 16 10 0 15 -7 13 -17z m24 -18 c-6
-34 -12 -32 -12 6 0 16 4 28 9 25 4 -3 6 -17 3 -31z m1598 31 c0 -11 -19 -15
-25 -6 -3 5 1 10 9 10 9 0 16 -2 16 -4z m-218 -63 c10 -13 3 -33 -13 -33 -5 0
-9 7 -9 15 0 9 -6 12 -15 9 -21 -9 -19 26 3 42 14 11 18 10 21 -4 2 -9 8 -22
13 -29z m38 17 c0 -5 -2 -10 -4 -10 -3 0 -8 5 -11 10 -3 6 -1 10 4 10 6 0 11
-4 11 -10z m280 -4 c0 -8 -4 -17 -9 -21 -12 -7 -24 12 -16 25 9 15 25 12 25
-4z m-513 -26 c-7 -31 -2 -34 36 -31 9 1 17 -3 17 -8 0 -9 -14 -15 -22 -9 -2
1 -13 -4 -25 -10 -14 -8 -24 -9 -28 -2 -3 5 -15 10 -26 10 -10 0 -19 5 -19 10
0 6 7 10 15 10 9 0 18 8 22 18 7 20 23 42 30 42 3 0 3 -13 0 -30z m375 5 c15
-34 1 -47 -37 -36 -17 5 -26 10 -21 10 5 1 3 8 -4 16 -16 19 -4 35 26 35 16 0
28 -8 36 -25z m-101 -2 c0 -5 2 -18 5 -31 4 -23 4 -23 -25 -6 -27 16 -28 19
-13 30 19 15 32 17 33 7z m-542 -59 c-13 -16 -35 -18 -44 -4 -7 11 35 31 48
23 4 -3 3 -11 -4 -19z m721 -15 c0 -5 -4 -9 -10 -9 -5 0 -10 7 -10 16 0 8 5
12 10 9 6 -3 10 -10 10 -16z m-7 -34 c-3 -9 -8 -14 -10 -11 -3 3 -2 9 2 15 9
16 15 13 8 -4z m-293 -25 c0 -5 -7 -10 -16 -10 -8 0 -12 5 -9 10 3 6 10 10 16
10 5 0 9 -4 9 -10z m3 -37 c-7 -2 -19 -2 -25 0 -7 3 -2 5 12 5 14 0 19 -2 13
-5z"/>
<path d="M2276 2415 c-3 -8 -1 -15 4 -15 6 0 10 7 10 15 0 8 -2 15 -4 15 -2 0
-6 -7 -10 -15z"/>
<path d="M646 2395 c4 -8 10 -15 15 -15 4 0 6 7 3 15 -4 8 -10 15 -15 15 -4 0
-6 -7 -3 -15z"/>
<path d="M3110 2400 c0 -5 5 -10 11 -10 5 0 7 5 4 10 -3 6 -8 10 -11 10 -2 0
-4 -4 -4 -10z"/>
<path d="M4107 2375 c-6 -13 1 -25 14 -25 14 0 18 28 4 34 -7 2 -16 -1 -18 -9z"/>
<path d="M1896 2363 c-6 -14 -5 -15 5 -6 7 7 10 15 7 18 -3 3 -9 -2 -12 -12z"/>
<path d="M596 2354 c-9 -23 0 -29 19 -14 14 11 17 10 22 -8 6 -26 16 -28 33
-7 10 12 10 15 -4 15 -9 0 -16 7 -16 15 0 21 -46 19 -54 -1z"/>
<path d="M3175 2349 c-4 -6 -5 -12 -2 -15 2 -3 7 2 10 11 7 17 1 20 -8 4z"/>
<path d="M3970 2336 c0 -2 7 -7 16 -10 8 -3 12 -2 9 4 -6 10 -25 14 -25 6z"/>
<path d="M4120 2308 c0 -15 5 -30 11 -33 6 -4 8 -13 5 -20 -3 -8 2 -11 13 -8
12 3 20 -2 24 -16 7 -28 24 -27 22 2 -1 12 -11 26 -23 32 -12 5 -28 23 -37 40
l-15 30 0 -27z"/>
<path d="M4180 2310 c0 -11 4 -20 9 -20 17 0 19 15 5 28 -12 11 -14 9 -14 -8z"/>
<path d="M3637 2291 c-4 -17 -3 -21 5 -13 5 5 8 16 6 23 -3 8 -7 3 -11 -10z"/>
<path d="M4053 2288 c-22 -11 -39 -38 -24 -38 4 0 18 11 31 25 26 27 25 29 -7
13z"/>
<path d="M630 2280 c0 -5 5 -10 10 -10 6 0 10 5 10 10 0 6 -4 10 -10 10 -5 0
-10 -4 -10 -10z"/>
<path d="M928 2271 c-4 -14 -11 -20 -18 -16 -7 4 -14 -2 -17 -15 -3 -12 -11
-19 -18 -16 -8 3 -16 -2 -19 -10 -3 -8 -13 -14 -22 -14 -15 0 -15 -2 0 -26 10
-14 15 -31 12 -37 -3 -9 -5 -9 -5 1 -1 6 -8 12 -16 12 -8 0 -15 5 -15 10 0 6
-7 10 -15 10 -8 0 -15 5 -15 10 0 6 -4 10 -10 10 -5 0 -10 -7 -10 -15 0 -19
-11 -19 -35 -1 -16 12 -21 10 -42 -12 -27 -29 -27 -31 -7 -57 11 -14 18 -16
21 -7 5 13 33 17 33 5 -1 -19 -19 -35 -30 -28 -8 5 -11 4 -6 -3 10 -17 -61
-55 -89 -48 -24 6 -33 -3 -18 -18 10 -9 13 -38 6 -50 -4 -5 -11 1 -16 15 -10
23 -11 23 -17 -11 -4 -19 -8 -29 -9 -21 -1 11 -4 11 -16 1 -9 -7 -14 -19 -11
-25 2 -7 -1 -18 -7 -24 -8 -8 -7 -14 5 -23 11 -9 13 -19 8 -33 -7 -18 -9 -16
-23 15 l-15 35 2 -32 c2 -18 -1 -33 -5 -33 -5 0 -9 -7 -9 -15 0 -8 5 -15 10
-15 6 0 10 -7 10 -15 0 -8 -6 -15 -12 -15 -7 0 -22 -3 -34 -6 -13 -3 -28 1
-39 13 -18 17 -19 17 -12 0 9 -25 -1 -41 -17 -28 -15 12 -56 -12 -43 -25 4 -5
11 -3 16 4 5 9 13 7 29 -8 12 -12 26 -19 31 -16 7 5 63 -17 79 -30 12 -9 -23
-44 -43 -44 -22 0 -25 -4 -25 -37 0 -24 3 -33 9 -25 6 10 14 9 39 -5 18 -10
35 -26 38 -35 3 -10 11 -15 20 -11 9 3 14 -2 14 -15 0 -25 -16 -37 -24 -20 -4
7 -4 3 -2 -9 5 -25 -4 -29 -22 -11 -9 9 -16 8 -30 -5 -11 -10 -26 -15 -36 -11
-19 7 -19 4 -6 -30 11 -29 30 -35 30 -9 0 13 3 14 12 5 15 -15 2 -29 -32 -34
-21 -4 -22 -6 -8 -12 10 -5 30 -1 49 8 41 21 41 21 38 -12 -5 -39 8 -56 27
-37 9 8 22 15 31 15 11 0 13 7 8 31 -5 22 -4 29 4 25 7 -5 9 -1 5 8 -4 10 -1
16 8 16 11 0 15 -12 15 -45 0 -29 -5 -45 -13 -45 -6 0 -27 -15 -46 -33 -35
-35 -64 -52 -85 -48 -7 1 -13 -3 -13 -9 0 -6 -5 -8 -10 -5 -6 3 -10 0 -10 -9
0 -8 -5 -16 -12 -18 -8 -3 -5 -11 9 -23 24 -20 86 -29 80 -11 -2 6 -13 10 -23
9 -18 -1 -18 -1 -1 11 9 7 17 20 17 29 0 24 17 30 30 10 10 -15 11 -14 7 10
-3 18 0 27 9 27 8 0 14 5 14 11 0 18 30 41 46 35 8 -3 13 -2 10 3 -3 5 1 12
10 15 13 5 14 9 4 21 -14 17 -8 31 9 20 6 -3 9 -20 7 -38 -3 -18 -5 -38 -5
-44 -1 -7 -8 -13 -16 -13 -8 0 -15 -3 -15 -8 0 -4 19 -6 43 -4 34 3 40 2 30
-9 -17 -18 -16 -29 3 -29 8 0 12 -4 9 -10 -14 -23 16 -8 31 16 9 14 23 23 30
20 17 -7 18 16 2 32 -9 9 -9 12 -1 12 7 0 18 -9 26 -20 7 -10 25 -24 39 -29
20 -7 26 -16 24 -35 -2 -18 1 -23 12 -18 11 4 14 1 9 -11 -3 -9 -2 -17 2 -17
5 0 11 7 15 15 10 28 33 17 28 -14 -3 -22 1 -29 16 -34 27 -6 34 1 21 24 -7
15 -6 17 6 13 8 -4 15 -13 15 -21 0 -11 7 -13 29 -8 21 4 30 2 35 -10 3 -9 2
-13 -4 -10 -6 3 -10 -2 -10 -11 0 -10 3 -14 7 -11 3 4 16 0 29 -8 19 -12 23
-12 28 0 7 20 36 19 36 0 0 -19 7 -19 27 0 8 9 23 13 33 10 12 -4 19 1 23 15
3 11 1 23 -4 26 -14 8 -10 24 6 24 8 0 15 -6 15 -13 0 -19 50 -77 66 -77 19 0
18 19 -1 26 -10 4 -11 9 -4 17 5 7 16 21 24 32 14 20 14 20 9 -1 -4 -14 0 -23
10 -27 9 -4 16 -3 17 1 5 47 12 57 35 48 15 -6 15 -8 1 -24 -14 -16 -14 -17 7
-17 18 0 21 5 18 27 -3 16 -11 28 -19 28 -8 0 -13 8 -12 18 3 36 -1 62 -12 62
-6 0 -8 -8 -4 -19 7 -24 -2 -48 -23 -56 -14 -5 -15 -4 -4 6 13 14 17 50 5 47
-10 -3 -53 25 -53 33 0 4 6 6 13 5 6 0 14 4 17 9 3 6 -10 11 -27 13 -32 3 -47
22 -18 22 9 0 15 9 15 22 0 21 0 21 -15 2 -14 -19 -14 -19 -15 1 0 11 9 26 20
33 26 16 46 6 30 -13 -19 -23 -2 -36 20 -17 23 19 26 38 8 46 -10 5 -10 7 0
12 13 6 17 25 5 23 -5 -1 -16 -1 -27 0 -15 1 -16 4 -6 16 7 9 10 19 6 23 -4 4
-17 -4 -28 -18 -12 -14 -19 -18 -16 -10 3 8 -1 20 -9 25 -9 7 -11 20 -7 45 6
25 9 30 14 16 3 -9 10 -16 15 -14 13 5 13 50 -1 55 -6 2 -9 15 -6 28 2 14 8
22 13 19 5 -3 9 0 9 5 0 19 -22 12 -27 -9 -8 -31 -36 -26 -30 6 3 20 -1 28
-19 36 -13 6 -24 15 -24 20 0 5 -9 7 -19 3 -11 -3 -22 -1 -26 5 -10 16 -25 12
-25 -6 0 -13 -3 -14 -14 -5 -11 9 -15 9 -19 -1 -4 -8 -6 -7 -6 5 -1 9 4 17 9
17 6 0 10 5 10 12 0 6 -7 4 -18 -5 -10 -10 -22 -14 -25 -10 -4 3 -7 1 -7 -5 0
-7 -7 -12 -15 -12 -8 0 -15 7 -15 16 0 9 -8 22 -17 29 -15 11 -15 15 -4 29 11
13 11 19 1 31 -7 9 -10 18 -7 21 3 3 2 17 -4 31 -8 21 -5 26 19 36 17 7 27 18
24 26 -3 9 2 11 17 6 21 -6 21 -5 9 15 -11 18 -10 23 6 36 17 12 18 14 3 14
-9 0 -17 7 -17 16 0 8 4 13 8 10 5 -3 9 1 9 9 0 8 -6 15 -13 15 -7 0 -18 9
-24 19 -5 11 -19 23 -30 26 -11 3 -20 13 -20 21 0 16 16 19 25 4 10 -16 21
-12 22 9 1 12 -7 22 -20 26 -18 6 -19 8 -5 12 18 5 33 33 17 33 -6 0 -17 7
-25 15 -14 13 -14 15 0 15 9 0 16 -6 17 -12 0 -7 4 -4 9 7 5 11 9 14 9 7 1
-15 21 -6 21 10 0 6 -9 8 -19 5 -10 -2 -25 -1 -32 4 -10 6 -11 9 -1 9 6 0 12
5 12 11 0 6 -7 9 -15 5 -9 -3 -20 2 -27 13 -6 11 -17 17 -24 14 -7 -2 -14 4
-16 14 -3 15 -5 14 -10 -6z m12 -46 c0 -8 -7 -15 -15 -15 -9 0 -12 6 -9 15 4
8 10 15 15 15 5 0 9 -7 9 -15z m-10 -45 c0 -5 -7 -10 -16 -10 -8 0 -12 -4 -9
-10 3 -5 1 -10 -4 -10 -14 0 -14 13 1 28 15 15 28 16 28 2z m-225 -49 c-3 -6
-11 -11 -17 -11 -6 0 -6 6 2 15 14 17 26 13 15 -4z m165 -45 c0 -2 -9 -2 -20
1 -11 3 -20 9 -20 15 0 5 9 4 20 -2 11 -6 20 -12 20 -14z m70 10 c0 -3 -4 -8
-10 -11 -5 -3 -10 -1 -10 4 0 6 5 11 10 11 6 0 10 -2 10 -4z m-154 -57 c3 -6
2 -15 -3 -20 -5 -5 -14 0 -21 11 -10 17 -10 20 2 20 8 0 18 -5 22 -11z m-102
-18 c3 -5 15 -7 26 -4 16 4 20 0 20 -20 0 -14 6 -27 13 -30 6 -2 8 -8 4 -13
-5 -5 -19 3 -32 19 -13 15 -33 27 -45 27 -20 0 -26 11 -13 23 9 10 21 9 27 -2z
m196 -11 c0 -5 -4 -10 -10 -10 -5 0 -10 5 -10 10 0 6 5 10 10 10 6 0 10 -4 10
-10z m160 -16 c0 -20 -18 -17 -29 5 -9 16 -8 18 9 14 11 -3 20 -12 20 -19z
m-21 -23 c7 -5 10 -14 7 -20 -4 -6 -2 -11 4 -11 6 0 8 -5 4 -11 -4 -8 -13 -4
-25 12 -28 36 -23 51 10 30z m-29 -41 c0 -5 -2 -10 -4 -10 -3 0 -8 5 -11 10
-3 6 -1 10 4 10 6 0 11 -4 11 -10z m-86 -31 c-3 -5 -10 -7 -15 -3 -5 3 -7 10
-3 15 3 5 10 7 15 3 5 -3 7 -10 3 -15z m-334 1 c0 -5 -7 -10 -15 -10 -8 0 -15
5 -15 10 0 6 7 10 15 10 8 0 15 -4 15 -10z m230 -39 c0 -5 -7 -11 -15 -15 -15
-5 -20 5 -8 17 9 10 23 9 23 -2z m170 -7 c0 -8 -4 -12 -10 -9 -5 3 -10 10 -10
16 0 5 5 9 10 9 6 0 10 -7 10 -16z m-330 -20 c0 -8 -5 -12 -10 -9 -6 4 -8 11
-5 16 9 14 15 11 15 -7z m270 -64 c0 -5 -7 -7 -15 -4 -8 4 -12 10 -9 15 6 11
24 2 24 -11z m80 5 c0 -16 -9 -19 -34 -9 -25 9 -19 24 9 24 16 0 25 -6 25 -15z
m-220 -19 c0 -3 -4 -8 -10 -11 -5 -3 -10 -1 -10 4 0 6 5 11 10 11 6 0 10 -2
10 -4z m-290 -36 c0 -5 -4 -10 -10 -10 -5 0 -10 5 -10 10 0 6 5 10 10 10 6 0
10 -4 10 -10z m86 -26 c-3 -9 -6 -18 -6 -20 0 -2 -4 -4 -9 -4 -5 0 -7 9 -4 20
3 11 10 20 15 20 6 0 7 -7 4 -16z m434 -39 c-11 -10 -19 -11 -30 -4 -13 8 -12
11 4 24 26 19 47 2 26 -20z m-400 15 c0 -5 -5 -10 -11 -10 -5 0 -7 5 -4 10 3
6 8 10 11 10 2 0 4 -4 4 -10z m165 -19 c10 -18 -17 -23 -33 -7 -15 15 -15 16
5 16 12 0 24 -4 28 -9z m72 3 c-3 -3 -12 -4 -19 -1 -8 3 -5 6 6 6 11 1 17 -2
13 -5z m390 -30 c-3 -3 -12 -4 -19 -1 -8 3 -5 6 6 6 11 1 17 -2 13 -5z m-567
-19 c0 -8 -4 -15 -9 -15 -13 0 -22 16 -14 24 11 11 23 6 23 -9z m-140 -25 c0
-5 -5 -10 -11 -10 -5 0 -7 5 -4 10 3 6 8 10 11 10 2 0 4 -4 4 -10z m60 -14 c0
-8 -4 -18 -10 -21 -5 -3 -10 3 -10 14 0 12 5 21 10 21 6 0 10 -6 10 -14z m653
-33 c-3 -7 -6 -13 -8 -13 -2 0 -5 6 -8 13 -3 8 1 14 8 14 7 0 11 -6 8 -14z
m-39 -26 c-3 -9 -10 -17 -15 -17 -11 0 -12 34 -2 44 11 11 24 -9 17 -27z
m-494 -9 c-1 -7 -7 -24 -15 -38 l-14 -25 -1 31 c0 17 3 34 7 37 10 11 23 8 23
-5z m-90 -12 c0 -3 -4 -8 -10 -11 -5 -3 -10 -1 -10 4 0 6 5 11 10 11 6 0 10
-2 10 -4z m-30 -26 c0 -5 -4 -10 -10 -10 -5 0 -10 5 -10 10 0 6 5 10 10 10 6
0 10 -4 10 -10z m75 -11 c0 -8 5 -17 10 -21 6 -5 5 -8 -2 -8 -7 0 -17 9 -23
19 -13 26 -13 34 3 29 6 -3 12 -11 12 -19z m106 -12 c-13 -13 -26 -3 -16 12 3
6 11 8 17 5 6 -4 6 -10 -1 -17z m194 13 c3 -5 -1 -10 -10 -10 -9 0 -13 5 -10
10 3 6 8 10 10 10 2 0 7 -4 10 -10z m185 -10 c0 -5 -5 -10 -11 -10 -5 0 -7 5
-4 10 3 6 8 10 11 10 2 0 4 -4 4 -10z m60 -49 c0 -12 -20 -25 -27 -18 -7 7 6
27 18 27 5 0 9 -4 9 -9z m-645 -25 c8 -7 11 -16 8 -19 -5 -6 -33 17 -33 27 0
10 11 7 25 -8z m155 -1 c19 -23 8 -26 -19 -4 -16 13 -18 19 -8 19 8 0 20 -7
27 -15z m435 -15 c3 -5 1 -10 -4 -10 -6 0 -11 5 -11 10 0 6 2 10 4 10 3 0 8
-4 11 -10z m-345 -36 c0 -8 -5 -12 -10 -9 -6 4 -8 11 -5 16 9 14 15 11 15 -7z
m-90 -24 c0 -5 -5 -10 -11 -10 -5 0 -7 5 -4 10 3 6 8 10 11 10 2 0 4 -4 4 -10z
m175 -13 c0 -24 -20 -21 -21 3 -1 12 4 19 10 17 6 -2 11 -11 11 -20z m35 -57
c0 -5 -6 -10 -14 -10 -8 0 -18 5 -21 10 -3 6 3 10 14 10 12 0 21 -4 21 -10z
m-446 -25 c-4 -8 -8 -15 -10 -15 -2 0 -4 7 -4 15 0 8 4 15 10 15 5 0 7 -7 4
-15z m763 -7 c-3 -8 -6 -5 -6 6 -1 11 2 17 5 13 3 -3 4 -12 1 -19z m-214 -17
c-3 -11 -11 -22 -18 -25 -9 -3 -12 0 -9 10 2 7 6 21 9 30 7 22 24 8 18 -15z
m82 -2 c-8 -12 -35 -12 -35 0 0 11 22 20 33 14 4 -2 5 -9 2 -14z m179 6 c3 -8
1 -15 -4 -15 -6 0 -10 -7 -10 -15 0 -8 -4 -15 -10 -15 -11 0 -12 6 -4 38 7 25
19 29 28 7z m-124 -52 c0 -17 -20 -16 -45 3 -16 12 -17 16 -6 23 17 11 51 -8
51 -26z m-75 -3 c3 -5 -1 -10 -10 -10 -9 0 -13 5 -10 10 3 6 8 10 10 10 2 0 7
-4 10 -10z"/>
<path d="M545 2270 c-3 -5 -2 -10 4 -10 5 0 13 5 16 10 3 6 2 10 -4 10 -5 0
-13 -4 -16 -10z"/>
<path d="M4080 2259 c-11 -19 -10 -20 10 -9 11 6 18 15 15 21 -9 13 -13 11
-25 -12z"/>
<path d="M615 2252 c-12 -9 -16 -42 -4 -42 5 0 14 -12 22 -26 12 -22 15 -24
26 -10 15 18 11 68 -6 74 -7 2 -13 -3 -13 -12 0 -9 -5 -16 -11 -16 -6 0 -9 9
-6 20 6 22 6 22 -8 12z"/>
<path d="M526 2220 c7 -38 11 -46 20 -38 3 3 -2 21 -10 39 l-16 34 6 -35z"/>
<path d="M2560 2240 c0 -5 5 -10 11 -10 5 0 7 5 4 10 -3 6 -8 10 -11 10 -2 0
-4 -4 -4 -10z"/>
<path d="M3982 2229 c3 -23 38 -41 38 -20 0 6 -8 7 -17 4 -12 -5 -15 -2 -10
10 3 9 1 19 -4 23 -7 4 -9 -3 -7 -17z"/>
<path d="M756 2233 c-11 -11 -6 -23 9 -23 8 0 15 4 15 9 0 13 -16 22 -24 14z"/>
<path d="M565 2199 c-4 -21 -2 -45 3 -56 6 -10 7 -25 3 -32 -6 -9 -10 -6 -14
10 -5 19 -8 20 -21 10 -16 -14 -12 -36 5 -26 12 8 12 -21 -1 -45 -14 -27 6
-36 31 -14 10 9 19 25 19 36 0 10 7 18 17 18 9 0 13 3 10 7 -4 3 1 12 11 19
14 10 15 15 4 26 -11 11 -16 10 -26 -4 -15 -20 -26 -14 -26 14 0 10 7 18 17
18 15 0 15 1 1 13 -9 6 -18 19 -21 27 -2 8 -8 -1 -12 -21z m9 -125 c3 -8 2
-12 -4 -9 -6 3 -10 10 -10 16 0 14 7 11 14 -7z"/>
<path d="M4136 2212 c-3 -6 -1 -14 5 -17 15 -10 25 3 12 16 -7 7 -13 7 -17 1z"/>
<path d="M3695 2200 c-11 -4 -27 -20 -35 -34 -8 -16 -20 -26 -30 -23 -10 3
-15 -4 -16 -20 -2 -18 1 -21 10 -13 7 5 15 7 19 4 8 -9 47 6 47 18 0 5 -7 7
-15 4 -13 -5 -12 -1 2 19 15 20 20 22 29 9 6 -7 15 -14 20 -14 4 0 3 5 -4 12
-8 8 -8 15 -1 24 13 16 -1 24 -26 14z"/>
<path d="M450 2184 c0 -8 5 -12 10 -9 6 3 10 10 10 16 0 5 -4 9 -10 9 -5 0
-10 -7 -10 -16z"/>
<path d="M486 2171 c-3 -5 1 -11 9 -15 8 -3 15 -1 15 4 0 13 -18 22 -24 11z"/>
<path d="M4075 2148 c10 -30 11 -32 30 -24 19 7 12 21 -17 37 -18 10 -19 8
-13 -13z"/>
<path d="M4153 2150 c-13 -5 -23 -16 -23 -25 0 -16 14 -18 44 -6 15 6 16 10 7
16 -11 6 -11 9 0 16 18 11 0 10 -28 -1z"/>
<path d="M3995 2118 c11 -34 23 -44 37 -30 8 8 8 12 1 12 -6 0 -13 9 -16 20
-3 11 -10 20 -17 20 -7 0 -9 -8 -5 -22z"/>
<path d="M4275 2120 c-3 -5 -1 -10 4 -10 6 0 11 5 11 10 0 6 -2 10 -4 10 -3 0
-8 -4 -11 -10z"/>
<path d="M460 2112 c0 -10 36 -9 46 1 4 4 -5 7 -19 7 -15 0 -27 -4 -27 -8z"/>
<path d="M4235 2110 c3 -5 10 -10 16 -10 5 0 9 5 9 10 0 6 -7 10 -16 10 -8 0
-12 -4 -9 -10z"/>
<path d="M635 2101 c-6 -11 9 -23 19 -14 9 9 7 23 -3 23 -6 0 -12 -4 -16 -9z"/>
<path d="M3563 2080 c-20 -16 -21 -19 -7 -36 14 -16 15 -17 10 -2 -3 11 3 23
15 32 11 8 17 16 12 19 -4 3 -18 -3 -30 -13z"/>
<path d="M3858 2088 c7 -7 16 -7 28 0 14 8 13 10 -10 10 -18 0 -24 -4 -18 -10z"/>
<path d="M3622 2081 c-9 -5 -5 -11 13 -21 21 -11 29 -11 50 0 14 7 25 17 25
22 0 12 -24 10 -38 -4 -8 -8 -15 -8 -24 0 -8 6 -19 7 -26 3z"/>
<path d="M4253 2072 c-14 -10 -26 -62 -13 -62 5 0 10 11 10 24 0 18 6 26 23
28 17 2 19 5 6 10 -9 3 -20 3 -26 0z"/>
<path d="M2316 2055 c4 -8 12 -15 20 -15 8 0 14 7 14 15 0 8 -9 15 -20 15 -13
0 -18 -5 -14 -15z"/>
<path d="M615 2050 c-3 -5 -1 -10 4 -10 6 0 11 5 11 10 0 6 -2 10 -4 10 -3 0
-8 -4 -11 -10z"/>
<path d="M2136 2034 c-4 -10 -1 -14 6 -12 15 5 23 28 10 28 -5 0 -13 -7 -16
-16z"/>
<path d="M3684 2005 c-18 -14 -18 -14 4 -8 12 3 22 9 22 14 0 12 -3 11 -26 -6z"/>
<path d="M2681 1994 c0 -11 3 -14 6 -6 3 7 2 16 -1 19 -3 4 -6 -2 -5 -13z"/>
<path d="M4280 1952 c0 -11 6 -22 14 -25 10 -4 12 0 9 14 -7 27 -23 34 -23 11z"/>
<path d="M2960 1950 c0 -5 5 -10 11 -10 5 0 7 5 4 10 -3 6 -8 10 -11 10 -2 0
-4 -4 -4 -10z"/>
<path d="M2122 1920 c0 -14 2 -19 5 -12 2 6 2 18 0 25 -3 6 -5 1 -5 -13z"/>
<path d="M4330 1917 c0 -8 7 -17 15 -21 8 -3 15 -3 15 0 0 3 -7 12 -15 20 -13
13 -15 13 -15 1z"/>
<path d="M4290 1900 c0 -5 5 -10 10 -10 6 0 10 5 10 10 0 6 -4 10 -10 10 -5 0
-10 -4 -10 -10z"/>
<path d="M2050 1855 c0 -14 5 -25 10 -25 6 0 10 11 10 25 0 14 -4 25 -10 25
-5 0 -10 -11 -10 -25z"/>
<path d="M1046 1841 c-4 -7 -5 -15 -2 -18 9 -9 19 4 14 18 -4 11 -6 11 -12 0z"/>
<path d="M4406 1822 c-3 -6 -1 -14 5 -17 15 -10 25 3 12 16 -7 7 -13 7 -17 1z"/>
<path d="M360 1810 c0 -5 5 -10 10 -10 6 0 10 5 10 10 0 6 -4 10 -10 10 -5 0
-10 -4 -10 -10z"/>
<path d="M1144 1715 c26 -19 42 -19 26 0 -7 8 -20 15 -29 15 -13 -1 -13 -3 3
-15z"/>
<path d="M2066 1701 c-4 -7 -5 -15 -2 -18 9 -9 19 4 14 18 -4 11 -6 11 -12 0z"/>
<path d="M340 1680 c0 -6 -4 -9 -9 -5 -5 3 -12 1 -16 -5 -3 -5 1 -10 9 -10 9
0 16 -7 16 -17 0 -9 3 -13 7 -10 3 4 13 1 22 -6 14 -10 14 -10 3 5 -8 9 -12
21 -9 25 3 4 -1 14 -9 21 -9 8 -14 9 -14 2z"/>
<path d="M413 1673 c-24 -5 -27 -11 -17 -37 8 -21 24 -21 24 0 0 14 3 14 15 4
10 -9 15 -9 15 -1 0 6 7 11 15 11 8 0 15 5 15 10 0 6 -4 10 -9 10 -5 0 -15 2
-23 4 -7 2 -23 1 -35 -1z"/>
<path d="M2171 1664 c0 -11 3 -14 6 -6 3 7 2 16 -1 19 -3 4 -6 -2 -5 -13z"/>
<path d="M278 1662 c-10 -2 -18 -10 -18 -18 0 -18 8 -18 27 1 18 18 15 23 -9
17z"/>
<path d="M2120 1655 c0 -9 6 -12 15 -9 8 4 15 7 15 9 0 2 -7 5 -15 9 -9 3 -15
0 -15 -9z"/>
<path d="M220 1600 c0 -5 5 -10 11 -10 5 0 7 5 4 10 -3 6 -8 10 -11 10 -2 0
-4 -4 -4 -10z"/>
<path d="M339 1598 c-11 -8 -10 -9 3 -4 10 3 20 1 23 -4 6 -10 35 -2 35 9 0
10 -46 10 -61 -1z"/>
<path d="M1315 1600 c-3 -5 1 -10 9 -10 9 0 16 5 16 10 0 6 -4 10 -9 10 -6 0
-13 -4 -16 -10z"/>
<path d="M320 1566 c0 -2 11 -11 25 -20 14 -9 25 -13 25 -8 0 5 -11 14 -25 20
-14 6 -25 10 -25 8z"/>
<path d="M2085 1560 c-3 -5 -1 -10 4 -10 6 0 11 5 11 10 0 6 -2 10 -4 10 -3 0
-8 -4 -11 -10z"/>
<path d="M397 1520 c3 -11 7 -20 9 -20 2 0 4 9 4 20 0 11 -4 20 -9 20 -5 0 -7
-9 -4 -20z"/>
<path d="M440 1521 c0 -21 21 -33 39 -22 17 11 2 41 -20 41 -12 0 -19 -7 -19
-19z"/>
<path d="M455 1460 c-3 -5 -1 -10 4 -10 6 0 11 5 11 10 0 6 -2 10 -4 10 -3 0
-8 -4 -11 -10z"/>
<path d="M1340 1450 c0 -5 7 -10 16 -10 8 0 12 5 9 10 -3 6 -10 10 -16 10 -5
0 -9 -4 -9 -10z"/>
<path d="M385 1420 c-3 -5 -1 -10 4 -10 6 0 11 5 11 10 0 6 -2 10 -4 10 -3 0
-8 -4 -11 -10z"/>
<path d="M342 1365 c6 -14 17 -25 23 -25 7 0 18 -7 25 -15 7 -8 17 -12 22 -9
5 4 -2 14 -16 23 -19 13 -23 20 -14 29 8 8 5 9 -11 5 -12 -3 -21 -1 -21 6 0 6
-4 11 -10 11 -6 0 -5 -10 2 -25z"/>
<path d="M268 1373 c7 -3 16 -2 19 1 4 3 -2 6 -13 5 -11 0 -14 -3 -6 -6z"/>
<path d="M1393 1365 c0 -8 4 -12 9 -9 5 3 6 10 3 15 -9 13 -12 11 -12 -6z"/>
<path d="M231 1354 c0 -11 3 -14 6 -6 3 7 2 16 -1 19 -3 4 -6 -2 -5 -13z"/>
<path d="M1356 1352 c-4 -8 27 -42 39 -42 2 0 -1 11 -7 25 -11 26 -23 31 -32
17z"/>
<path d="M463 1329 c-19 -7 -32 -30 -39 -66 -1 -6 4 -9 11 -6 8 2 11 11 8 18
-3 9 8 22 27 33 34 21 29 35 -7 21z"/>
<path d="M470 1288 c0 -22 17 -41 24 -29 4 6 4 16 0 23 -4 7 -3 8 4 4 7 -4 12
-2 12 3 0 6 -9 11 -20 11 -11 0 -20 -6 -20 -12z"/>
<path d="M1410 1265 c7 -9 15 -13 17 -11 7 7 -7 26 -19 26 -6 0 -6 -6 2 -15z"/>
<path d="M266 1236 c3 -8 13 -12 25 -9 16 5 18 8 7 14 -20 13 -38 11 -32 -5z"/>
<path d="M573 1208 c-3 -15 -9 -28 -14 -28 -5 0 -9 -12 -10 -27 0 -22 -2 -24
-8 -10 -6 17 -8 17 -24 -1 -17 -19 -17 -20 4 -25 26 -7 67 7 51 17 -7 4 -12
14 -12 23 0 12 7 14 33 10 17 -3 27 -3 21 -1 -8 3 -9 16 -4 37 6 28 4 33 -12
33 -13 0 -21 -9 -25 -28z m19 -20 c-7 -7 -12 -8 -12 -2 0 14 12 26 19 19 2 -3
-1 -11 -7 -17z"/>
<path d="M1416 1207 c3 -10 9 -15 12 -12 3 3 0 11 -7 18 -10 9 -11 8 -5 -6z"/>
<path d="M320 1185 c-8 -9 -8 -15 -2 -15 12 0 26 19 19 26 -2 2 -10 -2 -17
-11z"/>
<path d="M362 1183 c9 -10 13 -24 11 -30 -6 -16 53 -18 62 -3 3 6 -4 10 -17
10 -13 0 -29 9 -36 20 -7 11 -17 20 -24 20 -7 0 -5 -7 4 -17z"/>
<path d="M260 1171 c0 -5 7 -11 15 -15 8 -3 15 -1 15 3 0 5 -7 11 -15 15 -8 3
-15 1 -15 -3z"/>
<path d="M341 1144 c0 -11 3 -14 6 -6 3 7 2 16 -1 19 -3 4 -6 -2 -5 -13z"/>
<path d="M729 1160 c0 -3 -2 -13 -4 -22 -2 -10 4 -23 13 -29 12 -7 14 -12 5
-15 -14 -6 -18 -34 -5 -34 20 1 34 19 27 36 -4 11 -9 25 -11 33 -3 14 -23 39
-25 31z"/>
<path d="M245 1142 c-16 -12 -17 -42 -1 -42 9 0 12 -7 9 -20 -4 -15 0 -20 15
-20 11 0 22 -6 25 -12 3 -9 7 -7 12 5 5 11 1 24 -9 36 -9 10 -16 22 -16 28 0
16 -24 33 -35 25z"/>
<path d="M295 1141 c-6 -11 9 -23 19 -14 9 9 7 23 -3 23 -6 0 -12 -4 -16 -9z"/>
<path d="M900 1138 c0 -9 5 -20 10 -23 13 -8 13 5 0 25 -8 13 -10 13 -10 -2z"/>
<path d="M700 1125 c0 -8 -9 -15 -20 -15 -11 0 -20 -5 -20 -11 0 -6 7 -8 16
-5 9 3 19 6 24 6 4 0 10 9 13 20 3 11 1 20 -4 20 -5 0 -9 -7 -9 -15z"/>
<path d="M813 1127 c-3 -5 1 -13 8 -18 12 -7 28 5 29 22 0 9 -30 6 -37 -4z"/>
<path d="M360 1122 c0 -5 7 -15 15 -22 8 -7 15 -8 15 -2 0 5 -7 15 -15 22 -8
7 -15 8 -15 2z"/>
<path d="M481 1114 c0 -11 3 -14 6 -6 3 7 2 16 -1 19 -3 4 -6 -2 -5 -13z"/>
<path d="M1384 1087 c-4 -7 -4 -9 1 -5 4 4 14 0 21 -10 12 -15 13 -15 14 -1 0
21 -27 32 -36 16z"/>
<path d="M1233 1064 c-9 -9 -9 -14 3 -18 9 -3 20 -4 25 0 5 3 9 -3 10 -13 0
-12 2 -13 6 -5 3 8 -3 21 -14 31 -15 14 -21 15 -30 5z"/>
<path d="M488 1063 c6 -2 18 -2 25 0 6 3 1 5 -13 5 -14 0 -19 -2 -12 -5z"/>
<path d="M530 1060 c0 -5 5 -10 10 -10 6 0 10 5 10 10 0 6 -4 10 -10 10 -5 0
-10 -4 -10 -10z"/>
<path d="M645 1060 c4 -6 11 -8 16 -5 14 9 11 15 -7 15 -8 0 -12 -5 -9 -10z"/>
<path d="M347 1053 c-4 -3 -7 -11 -7 -17 0 -6 5 -5 12 2 6 6 9 14 7 17 -3 3
-9 2 -12 -2z"/>
<path d="M1830 1040 c0 -5 5 -10 10 -10 6 0 10 5 10 10 0 6 -4 10 -10 10 -5 0
-10 -4 -10 -10z"/>
<path d="M1757 1018 c-20 -22 -17 -34 8 -25 8 4 15 16 15 27 0 24 0 24 -23 -2z"/>
<path d="M1705 1020 c-8 -13 5 -13 25 0 13 8 13 10 -2 10 -9 0 -20 -4 -23 -10z"/>
<path d="M1430 1010 c0 -5 5 -10 11 -10 5 0 7 5 4 10 -3 6 -8 10 -11 10 -2 0
-4 -4 -4 -10z"/>
<path d="M1364 994 c3 -9 6 -22 6 -30 0 -8 4 -14 8 -14 5 0 7 14 4 30 -2 17
-9 30 -14 30 -6 0 -7 -7 -4 -16z"/>
<path d="M1401 994 c0 -11 3 -14 6 -6 3 7 2 16 -1 19 -3 4 -6 -2 -5 -13z"/>
<path d="M1250 980 c0 -5 5 -10 10 -10 6 0 10 5 10 10 0 6 -4 10 -10 10 -5 0
-10 -4 -10 -10z"/>
<path d="M1780 960 c18 -12 30 -13 30 -2 0 4 -10 9 -22 9 -18 2 -20 0 -8 -7z"/>
<path d="M1331 944 c0 -11 3 -14 6 -6 3 7 2 16 -1 19 -3 4 -6 -2 -5 -13z"/>
<path d="M1382 849 c2 -6 8 -10 13 -10 5 0 11 4 13 10 2 6 -4 11 -13 11 -9 0
-15 -5 -13 -11z"/>
<path d="M1680 850 c0 -5 7 -10 16 -10 8 0 12 5 9 10 -3 6 -10 10 -16 10 -5 0
-9 -4 -9 -10z"/>
<path d="M2150 734 c0 -8 5 -12 10 -9 6 4 8 11 5 16 -9 14 -15 11 -15 -7z"/>
<path d="M2080 730 c0 -5 5 -10 10 -10 6 0 10 5 10 10 0 6 -4 10 -10 10 -5 0
-10 -4 -10 -10z"/>
<path d="M2180 720 c0 -11 4 -20 9 -20 5 0 7 9 4 20 -3 11 -7 20 -9 20 -2 0
-4 -9 -4 -20z"/>
<path d="M2251 714 c0 -11 3 -14 6 -6 3 7 2 16 -1 19 -3 4 -6 -2 -5 -13z"/>
<path d="M1711 704 c0 -11 3 -14 6 -6 3 7 2 16 -1 19 -3 4 -6 -2 -5 -13z"/>
<path d="M1870 691 c0 -10 19 -25 25 -20 1 2 -3 10 -11 17 -8 7 -14 8 -14 3z"/>
<path d="M1967 685 c-13 -9 -15 -15 -7 -20 7 -4 19 -1 27 8 19 19 3 29 -20 12z"/>
<path d="M2155 690 c-3 -5 1 -10 10 -10 9 0 13 5 10 10 -3 6 -8 10 -10 10 -2
0 -7 -4 -10 -10z"/>
<path d="M1826 674 c-8 -21 -8 -21 8 -27 10 -4 13 -1 9 9 -3 7 0 14 6 14 6 0
11 5 11 10 0 16 -27 11 -34 -6z"/>
<path d="M1780 665 c-10 -12 -10 -15 3 -15 19 0 31 16 18 24 -5 3 -14 -1 -21
-9z"/>
<path d="M2947 644 c3 -7 9 -14 14 -14 14 0 10 17 -5 23 -10 4 -13 1 -9 -9z"/>
<path d="M2980 650 c0 -5 5 -10 10 -10 6 0 10 5 10 10 0 6 -4 10 -10 10 -5 0
-10 -4 -10 -10z"/>
<path d="M3000 609 c0 -7 -11 -9 -25 -7 -21 4 -23 3 -13 -9 9 -11 9 -17 -3
-24 -10 -7 -8 -8 10 -7 21 3 61 30 61 42 0 2 -7 6 -15 10 -8 3 -15 0 -15 -5z"/>
<path d="M3080 601 c0 -5 7 -11 15 -15 8 -3 15 -1 15 3 0 5 -7 11 -15 15 -8 3
-15 1 -15 -3z"/>
<path d="M3120 605 c0 -2 10 -10 23 -16 20 -11 21 -11 8 4 -13 16 -31 23 -31
12z"/>
<path d="M2586 585 c4 -8 8 -15 10 -15 2 0 4 7 4 15 0 8 -4 15 -10 15 -5 0 -7
-7 -4 -15z"/>
<path d="M2610 570 c0 -5 5 -10 10 -10 6 0 10 5 10 10 0 6 -4 10 -10 10 -5 0
-10 -4 -10 -10z"/>
<path d="M3020 572 c0 -18 29 -27 43 -13 9 9 8 11 -7 5 -11 -4 -21 -2 -27 7
-6 10 -9 11 -9 1z"/>
<path d="M2872 530 c9 -13 16 -16 23 -9 7 7 5 13 -5 19 -24 15 -31 11 -18 -10z"/>
<path d="M2913 534 c0 -8 6 -14 14 -14 7 0 13 4 13 9 0 5 -6 11 -13 14 -8 3
-14 -1 -14 -9z"/>
<path d="M2955 540 c-3 -5 3 -10 15 -10 12 0 18 5 15 10 -3 6 -10 10 -15 10
-5 0 -12 -4 -15 -10z"/>
<path d="M2735 530 c-3 -5 -1 -10 4 -10 6 0 11 5 11 10 0 6 -2 10 -4 10 -3 0
-8 -4 -11 -10z"/>
<path d="M2765 530 c-3 -5 3 -10 15 -10 12 0 18 5 15 10 -3 6 -10 10 -15 10
-5 0 -12 -4 -15 -10z"/>
<path d="M2555 510 c-10 -11 -14 -20 -9 -20 5 0 15 9 22 20 7 11 11 20 9 20
-2 0 -12 -9 -22 -20z"/>
<path d="M2636 495 c-11 -8 -16 -15 -10 -15 5 0 18 7 28 15 11 8 16 15 10 15
-5 0 -18 -7 -28 -15z"/>
<path d="M2458 473 c6 -2 18 -2 25 0 6 3 1 5 -13 5 -14 0 -19 -2 -12 -5z"/>
<path d="M3367 309 c7 -7 15 -10 18 -7 3 3 -2 9 -12 12 -14 6 -15 5 -6 -5z"/>
<path d="M3830 279 c0 -16 28 -40 34 -30 4 5 -1 17 -10 25 -18 19 -24 20 -24
5z"/>
</g>
</svg>
